<?xml version="1.0" encoding="UTF-8"?>
<!DOCTYPE svg PUBLIC "-//W3C//DTD SVG 1.1//EN" "http://www.w3.org/Graphics/SVG/1.1/DTD/svg11.dtd">
<!-- Creator: CorelDRAW X6 -->
<svg xmlns="http://www.w3.org/2000/svg" xml:space="preserve" width="210mm" height="297mm" version="1.1" style="shape-rendering:geometricPrecision; text-rendering:geometricPrecision; image-rendering:optimizeQuality; fill-rule:evenodd; clip-rule:evenodd"
viewBox="0 0 21000 29700"
 xmlns:xlink="http://www.w3.org/1999/xlink">
 <defs>
  <style type="text/css">
   <![CDATA[
    .str0 {stroke:#00C9DC;stroke-width:150;stroke-linejoin:round}
    .fil0 {fill:none}
   ]]>
  </style>
 </defs>
 <g id="Слой_x0020_1">
  <metadata id="CorelCorpID_0Corel-Layer"/>
  <path class="fil0 str0" d="M10500 12376l397 254 117 -200 336 331 156 -171 259 393 189 -135 172 439 213 -93 76 465 228 -46 -22 471 232 1 -119 456 227 50 -212 421 212 97 -295 368 187 138 -364 298 154 174 -419 217 115 202 -455 124 70 222 -470 27 22 231 -465 -71 -27 231 -440 -166 -74 220 -397 -254 -117 200 -336 -331 -156 171 -259 -393 -189 135 -172 -439 -213 93 -76 -465 -228 46 22 -471 -232 -1 119 -456 -227 -50 212 -421 -212 -97 295 -368 -187 -138 364 -298 -154 -174 419 -216 -115 -203 455 -124 -70 -222 470 -27 -22 -231 465 71 27 -231 440 166 74 -220zm0 1876c330,0 598,268 598,598 0,330 -268,598 -598,598 -330,0 -598,-268 -598,-598 0,-330 268,-598 598,-598z"/>
 </g>
</svg>
