<?xml version="1.0" encoding="UTF-8"?>
<!DOCTYPE svg PUBLIC "-//W3C//DTD SVG 1.1//EN" "http://www.w3.org/Graphics/SVG/1.1/DTD/svg11.dtd">
<!-- Creator: CorelDRAW X6 -->
<svg xmlns="http://www.w3.org/2000/svg" xml:space="preserve" width="210mm" height="297mm" version="1.1" style="shape-rendering:geometricPrecision; text-rendering:geometricPrecision; image-rendering:optimizeQuality; fill-rule:evenodd; clip-rule:evenodd"
viewBox="0 0 21000 29700"
 xmlns:xlink="http://www.w3.org/1999/xlink">
 <defs>
  <style type="text/css">
   <![CDATA[
    .str0 {stroke:#00C9DC;stroke-width:150}
    .fil0 {fill:none}
   ]]>
  </style>
 </defs>
 <g id="Слой_x0020_1">
  <metadata id="CorelCorpID_0Corel-Layer"/>
  <g id="_132190208">
   <path class="fil0 str0" d="M1516 7878l2646 0 0 2240 -1180 0c-101,-134 -262,-221 -443,-221 -181,0 -342,87 -443,221l-580 0 0 -2240z"/>
   <path class="fil0 str0" d="M2982 10118l1559 0 575 0c-84,97 -134,223 -134,361 0,33 3,66 8,97l-1909 0c9,-39 13,-81 13,-123 0,-126 -41,-242 -112,-335zm2977 0l504 0 62 0 0 229c0,126 -103,229 -229,229l-211 0c5,-31 8,-64 8,-97 0,-138 -50,-264 -134,-361z"/>
   <path class="fil0 str0" d="M6084 9174l141 0c131,0 238,107 238,238l0 706 -504 0c-102,-119 -253,-194 -422,-194 -168,0 -320,75 -421,194l-575 0 0 -1729 1032 0 511 785z"/>
   <path class="fil0 str0" d="M2539 9897c307,0 555,249 555,556 0,307 -248,555 -555,555 -307,0 -556,-248 -556,-555 0,-307 249,-556 556,-556z"/>
   <circle class="fil0 str0" cx="5537" cy="10479" r="556"/>
   <line class="fil0 str0" x1="4885" y1="9174" x2="5555" y2= "9174" />
  </g>
 </g>
</svg>
