<svg xmlns="http://www.w3.org/2000/svg" viewBox="0 0 29700 13346" shape-rendering="geometricPrecision" text-rendering="geometricPrecision" image-rendering="optimizeQuality" fill-rule="evenodd" clip-rule="evenodd">
  <defs>
    <style>
<![CDATA[
    .str1 {stroke:#FEFEFE;stroke-width:7.62}
    .str0 {stroke:#FEFEFE;stroke-width:35.28}
    .fil0 {fill:#FEFEFE}
    .fil1 {fill:#FEFEFE;fill-rule:nonzero}
   ]]>
    </style>
  </defs>
  <g id="Слой_x0020_1">
    <path class="fil0" d="M15870 3688h-323v406h-266V3068h266v385h323v-385h270v1026h-270v-406zm-4377 367V3047h484c153 0 319 104 319 270 0 105-22 175-122 227 109 48 170 74 165 271 1 192-165 248-423 248l-423-8zm257-406v218h192c83 0 131-39 131-109s-56-109-122-109h-201zm-8-393v201h179c61 0 117-39 117-100 0-62-48-101-117-101h-179zm672 301c0-104 13-196 52-266 35-74 74-131 127-166 52-35 104-61 152-74s96-22 140-22 92 9 144 22c48 13 100 35 153 74 52 35 96 92 126 166 35 70 53 162 53 266 0 114-18 205-53 275-30 74-74 131-126 166-53 35-105 61-157 74-48 13-96 22-140 22-39 0-87-9-140-22-48-13-100-39-152-74-53-35-92-92-127-166-39-70-52-161-52-275zm248 13c0 53 9 101 22 136 13 39 31 69 57 87 17 26 44 39 70 48 22 9 48 13 74 13s52-4 79-13c26-9 48-22 69-48 22-18 40-48 57-87 9-35 18-83 18-136 0-56-9-100-18-135-17-39-35-65-57-92-21-17-43-34-69-43-27-9-53-9-79-9s-52 0-74 9c-26 9-53 26-70 43-26 27-44 53-57 92-13 35-22 79-22 135zm760 349l152-157c62 61 179 118 262 118 88 0 144-9 144-87 0-44-17-66-61-79-83-21-187-52-283-91-114-57-184-118-184-280 0-270 301-314 393-309 96 0 240 39 349 157-57 48-65 65-157 170-61-70-127-109-205-109-66 0-131 30-127 96 5 48 18 74 61 83 48 13 96 30 240 65 140 35 223 140 219 279-5 210-153 323-354 323-179 0-323-43-449-179zm1767-654l-209 135c-40-39-88-113-206-113-74 0-209 65-209 270 0 214 92 310 231 306 109-5 131-26 197-105l192 144c-70 92-157 214-397 209-258-4-485-209-485-554 5-283 201-515 471-515 171 5 310 79 415 223zm-4568 693v-131h-493v210l-74-53c-57-52-105-113-140-178-31-70-48-140-48-223 0-79 17-148 48-218 35-66 83-131 140-179l74-53v236h493v-244l70 52c61 48 113 109 152 183 31 66 48 140 48 223s-17 161-48 227c-39 74-91 135-152 183l-70 53v-88zm87-646v546c18-26 39-52 52-83 31-57 44-122 44-192 0-66-13-131-44-188-13-30-34-56-52-83zm-580 144v284h484v-284h-484zm-92 384v-510c-13 26-30 48-44 74-21 52-39 118-39 179 0 65 18 131 39 183 14 26 31 48 44 74zm345-942c192 0 362 78 484 201 122 126 201 296 201 484 0 192-79 362-201 489-122 122-292 200-484 200s-362-78-485-200c-126-127-205-297-205-489 0-188 79-358 205-484 123-123 293-201 485-201zm423 262c-109-109-257-175-423-175s-314 66-428 175c-104 113-174 257-174 423s70 314 174 428c114 109 262 174 428 174s314-65 423-174c109-114 175-262 175-428s-66-310-175-423zm-829 1525c62 0 92-26 92-82 0-54-28-79-89-79h-107v161h104zm-152-202h148c54 0 87 10 112 34 22 21 34 51 34 89 0 76-49 118-136 118h-110v178h-48v-419zm500 271c-98 3-139 23-139 66 0 31 20 48 56 48 48 0 83-28 83-67v-47zm6 115c-1-2-1-2-3-9-27 33-56 47-94 47-57 0-97-35-97-85 0-44 30-76 84-91 29-8 51-10 104-12v-19c0-48-19-69-60-69-32 0-56 10-88 38l-29-32c37-33 71-47 117-47 70 0 109 39 109 110v133c0 25 7 32 33 32 1 0 2 1 2 3 0 3 0 6-1 12v23c-10 1-12 1-16 1-27 0-49-11-58-30l-3-5zm156-59c12 38 40 57 88 57 47 0 76-20 76-52 0-33-31-53-79-53h-49v-40h48c44 0 73-18 73-45s-28-46-67-46c-40 0-63 13-78 43l-41-15c17-46 55-69 120-69 71 0 113 33 113 86 0 30-11 47-40 63 34 14 50 38 50 74 0 59-47 94-126 94-46 0-85-13-108-36-14-14-20-27-26-51l46-10zm337-61c0 75 34 118 93 118 57 0 86-39 86-115 0-77-31-121-86-121-58 0-93 44-93 118zm-47-153h49v50c23-36 57-56 99-56 78 0 128 62 128 157 0 97-50 160-128 160-43 0-78-19-99-54v155h-49v-412zm508 158c-99 3-140 23-140 66 0 31 20 48 56 48 49 0 84-28 84-67v-47zm5 115c0-2-1-2-3-9-26 33-55 47-94 47-57 0-96-35-96-85 0-44 30-76 84-91 29-8 51-10 104-12v-19c0-48-19-69-61-69-32 0-56 10-88 38l-28-32c37-33 70-47 116-47 70 0 109 39 109 110v133c0 25 7 32 33 32 2 0 2 1 2 3v35c-10 1-12 1-17 1-27 0-48-11-58-30l-3-5zm169-120c0 71 37 118 92 118 52 0 84-45 84-116 0-76-32-120-85-120-54 0-91 47-91 118zm183-250c-126 0-153 22-174 139 28-33 55-48 97-48 73 0 120 61 120 155 0 96-55 162-134 162-45 0-84-20-109-54-22-31-32-69-32-127 0-109 30-199 77-234 23-17 55-27 103-31 7 0 19-1 47-3l5 41zm147 250c0 72 36 118 93 118 59 0 95-45 95-119 0-71-37-117-94-117-58 0-94 45-94 118zm239-1c0 93-61 159-145 159s-144-67-144-160c0-90 61-157 144-157 84 0 145 67 145 158zm115-112h-95v-40h238v40h-95v266h-48zm360 118c-98 3-139 23-139 66 0 31 20 48 56 48 49 0 83-28 83-67v-47zm6 115c0-2-1-2-3-9-27 33-55 47-94 47-57 0-97-35-97-85 0-44 30-76 85-91 28-8 51-10 103-12v-19c0-48-18-69-60-69-32 0-56 10-88 38l-28-32c36-33 70-47 116-47 70 0 109 39 109 110v133c0 25 7 32 33 32 1 0 2 1 2 3 0 3 0 6-1 12v23c-10 1-11 1-16 1-27 0-49-11-58-30l-3-5zm144-273h49v130h145v-130h48v306h-48v-135h-145v135h-49zm354 153c0 72 36 118 93 118 59 0 95-45 95-119 0-71-36-117-94-117s-94 45-94 118zm239-1c0 93-61 159-145 159s-144-67-144-160c0-90 61-157 144-157 84 0 145 67 145 158zm350 113l-80-224-80 224h160zm-109-265h61l98 265h32v102h-35l-7-61h-238l-6 61h-36v-102h31l100-265zm322 0h57l105 306h-53l-82-257-80 257h-50zm414 39h-87c-38 0-56 15-56 47 0 35 22 55 61 55h82v-102zm0 267v-125h-66c-24 0-38 3-49 12-12 10-15 18-22 52-7 28-14 48-23 61h-46v-11c10-13 20-40 27-75 6-28 17-44 39-54-35-15-50-39-50-80 0-31 10-55 31-69 16-13 38-17 76-17h131v306h-48zm545 0l-99-133h-27v133h-47v-135h-26l-100 135h-54l120-154-114-152h57l91 132h26v-132h47v134h26l91-134h55l-111 153 122 153zm114-306h49v206l147-172v-34h48v306h-48v-210l-147 172v38h-49zm354 214c12 38 40 57 88 57 46 0 75-20 75-52 0-33-30-53-78-53h-50v-40h48c44 0 73-18 73-45s-27-46-66-46c-41 0-64 13-78 43l-41-15c16-46 54-69 119-69 71 0 114 33 114 86 0 30-11 47-40 63 34 14 50 38 50 74 0 59-47 94-127 94-46 0-85-13-108-36-13-14-20-27-25-51l46-10zm293-214h49v130h145v-130h49v306h-49v-135h-145v135h-49zm347 0h49v206l147-172v-34h48v306h-48v-210l-147 172v38h-49z" id="БОШ_x0020_вектор.cdr"/>
    <g id="_1114383120">
      <path class="fil0" d="M5991 12955l206-570h-570c-74 0-154 59-180 131l-156 425h-305l147-386h156l74-203h-153l105-277h-270l-102 277h-178l-74 203h179l-141 386h-312l218-576h-265l-215 589h-246l-69-222 397-355h-282l-320 286h-24l206-568h-247l-313 860h-228l205-570h-569c-74 0-154 59-182 131l-164 452h-213l213-585h-467l51-141h-458l50-134H726v246h433l-294 805h246l244-669h212l-245 669h248l192-528h221l-192 528h394l126-130c1 64 34 130 90 130h226l136-145c-3 67 31 145 90 145h227l159-156-56 156h247l146-400h28l125 400h264l149-158c-7 71 29 153 90 153h329l153-168c-13 73 23 168 88 168h330l142-156c-11 70 25 161 89 161h226l136-145c-3 67 31 145 90 145h435v-204h-259zm-3216-5h-195l129-355h195l-129 355zm2962 0h-195l131-355h193l-129 355z"/>
      <path class="fil0" d="M4747 12075h-272l-82 225h268z"/>
    </g>
    <path class="fil1" d="M18417 6968h3806l-103 137-281 373h-208l256-340h-3302l256 340h-208l-280-373-103-137h167zm2541 1683l-657 875-65 86-65-86-657-875h208l514 685 514-685h208zm-2362-370v205h-626v-860h626v199h-375v124h303v191h-303v141h375zm684-6v211h-583v-860h255v649h328zm345-649v860h-256v-860h256zm487 206v654h-242v-654h-173v-206h587v206h-172zm870 449v205h-625v-860h625v199h-375v124h304v191h-304v141h375zm559-123l234 14c-11 106-49 187-113 243-65 56-144 85-238 85-113 0-204-39-273-117-70-77-105-183-105-320 0-134 33-243 99-326s158-124 276-124c110 0 194 31 253 94 60 63 93 147 101 251l-239 13c0-57-10-99-32-124-21-26-46-39-75-39-80 0-120 84-120 251 0 94 10 157 31 191s50 50 88 50c67 0 105-47 113-142zm1033-532v860h-256v-334h-195v334h-255v-860h255v316h195v-316h256zm149-383c16 0 33 5 49 13s28 20 37 36c9 15 14 31 14 48s-5 32-13 48c-9 15-22 27-38 35-15 9-32 13-49 13-18 0-34-4-50-13-16-8-29-20-37-35-9-16-14-31-14-48s5-33 14-48c9-16 21-28 37-36s33-13 50-13zm0 16c-15 0-28 4-42 11-13 7-23 17-31 30-7 12-11 26-11 40s4 27 11 40 18 22 31 30c13 7 27 10 42 10 14 0 28-3 41-10 13-8 24-17 31-30s11-26 11-40-4-28-11-40c-8-13-18-23-31-30-14-7-27-11-41-11zm-44 134v-104h37c12 0 21 1 27 3s10 6 14 10c3 5 5 10 5 16 0 7-3 14-9 19-5 6-13 9-22 10 4 1 7 3 9 5 4 4 10 11 16 21l13 20h-21l-10-16c-7-13-13-21-18-24-3-3-8-4-14-4h-10v44h-17zm17-58h21c10 0 17-2 21-5 3-2 5-6 5-11 0-3-1-6-2-8-2-3-5-5-8-6s-9-2-17-2h-20v32z" id="_1114382256"/>
    <path class="fil0" d="M7762 8873c-44 0-81-19-109-38-14-9-28-20-42-31-16-13-29-21-32-46-8-78 0-215 0-299 55 15 163 122 353-6 0 93 6 202 1 293-2 33-38 63-64 82s-66 45-107 45zm-572-335c0 178 56 310 162 416 114 112 235 156 398 156 280 0 541-242 541-511v-73c0-212-132-433-304-536-73-44-136-73-237-73-147 0-194 96-228 138-14 18-23 17-44 29-91 55-172 128-223 221-34 60-65 143-65 233zm2373 317c-53 0-83 1-126-44-83-88-20-242 90-242 95 0 157 38 162 141 4 70-55 145-126 145zm-15 255h-17c-99-2-195-41-270-117-160-159-156-406 3-566 59-60 158-114 275-114 78 0 118 28 146 30v-401h256v645c0 222-16 318-142 431-18 16-43 32-65 44-60 31-123 47-186 48zm3442-541h31c138 0 185 228 37 280-122 43-236-72-190-189 17-42 64-91 122-91zm18 541h-30c-48-2-95-14-142-34-83-37-151-107-191-187-41-81-38-123-38-211 0-52 24-119 42-152 212-370 749-220 749 177v401h-237c-19 0-17-7-19-24-23 5-35 14-64 21-24 5-47 8-70 9zm-2970-365c0 126 21 174 86 255 59 73 145 108 232 110h20c166-4 332-123 332-316v-469h-250v365c0 77-5 159-75 167-79 9-89-69-89-148v-384h-256v420zm-1643-85v438h255v-408c0-89 24-121 92-121 80 0 73 142 73 207v322h249v-475c0-97-48-167-99-217-190-191-570-79-570 254zm2702 450c50 0 80-12 104-42 49-62 152-428 182-524 21-72 50-145 67-219h-255c-12 51-91 281-92 317-22-17-43-129-51-156l-46-161h-262l209 643c25 74 49 142 144 142zm1169-12h256V7942h-256zm-384 0h250V7942h-250zm-407-925c0 86 45 111 89 136 22 13 10-2 20 22-26-10-61-6-91-6v773h256v-773c-31 0-65-4-92 6 6-22-4-10 37-30 126-66 80-274-73-274-80 0-146 65-146 146z" id="_1114379504"/>
    <g id="_1114378832">
      <path class="fil0" d="M10623 12287l-294 2c-51 118-50 484-167 517-120 34-49-176-38-228 18-86 50-206 59-289l-312-4c-10 69-29 148-44 216-7 37-31 191-47 210-39-20-3-128-12-206-6-50-59-127-85-146-74-55-282-63-392-65-163-3-264 0-401 56-81 34-130 109-156 189-9 29-12 62-27 88l-74 11-87 455 268-2c21-105 54-262 85-364 12-39 24-89 57-98 115-33 63 148 50 205-17 74-46 185-50 258l295 1c11-78 39-173 57-250 17-73 34-189 101-203 167-34-12 364-5 453l410 6c1-2 2-6 3-5 4 11 1-6 10-24 68 38 147 48 217 3 32-21 53-41 78-65 22-20 50-57 77-69l-30 146c65 0 247 12 292-4l51-251c18 9 3-1 15 12 62 63 56 88 191 154 196 95 406 105 591-13 74-47 129-114 171-203 127-275 91-591 311-804 44-43 165-126 256-113 1 34-176 716-189 772-33 139-100 266 2 368 39 39 120 55 188 41 64-14 128-52 185-62 22 48 20 59 80 74 85 23 178-4 247-52 28-20 65-54 93-65l-19 134 584 8 103-378c13-42 38-70 84-78 134-24 69 129 50 200-22 86-43 174-65 258l282 3c13-65 85-292 112-375 13-42 37-70 84-82 135-32 64 129 43 199-14 47-70 225-70 261 60 0 348 9 380-4 16-23 94-319 105-370l-85-13c-8-74 16-130-17-201-26-55-59-90-105-119-64-41-88-42-174-43-251-3-555-46-765 107-46 34-70 71-108 114-1-44 41-172 51-225h-287c-18 5-17 27-26 58l-55 192c-26 90-34 195-116 217-128 35-55-144-40-207 22-89 49-180 67-269h-284c-16 4-16 28-24 62-6 26-13 49-19 73l-76 281c-15 25-79 69-122 61-36-43-12-98 3-152 15-52 28-100 43-152 26-87 239-898 238-923-355-20-709 0-924 300-85 118-143 290-181 440-12 51-24 118-41 166-30 87-125 158-227 186-143 38-223-32-305-91-97-70-97-150-124-290z"/>
      <path class="fil0" d="M10815 11606c-139 27-259 160-225 329 28 137 157 259 328 226 136-26 256-161 224-329-26-136-158-259-327-226z"/>
    </g>
    <g id="_1114375888">
      <path class="fil0" d="M14416 10882h-113c18-35 44-97 64-136l38-82c28-55 57-123 84-177 2-5 4-9 6-14 3-7 12-23 13-29h112c0 7-46 100-50 109l-148 315c-2 5-4 9-6 14zm-91-681h653c5 0 9 3 13 6 12 10 16 13 26 26 17 22 21 35 21 54v23c0 18-20 56-29 74l-84 182c-5 9-9 18-13 28-5 9-9 18-14 28-2 4-4 9-6 14l-71 152c-5 10-9 19-13 29l-85 180c-10 22-21 48-36 67-7 9-12 13-19 21l-22 19c-10 8-11 11-25 17-15 8-41 17-64 17h-540c-51 0-81-14-107-52-17-26-15-32-15-59 0-35 19-75 34-104l31-67c3-6 5-9 7-14 25-54 55-121 81-173l13-27c3-6 4-9 6-15 3-4 4-7 7-12l12-26c9-23 29-61 38-81l50-108c2-5 4-7 6-12 21-45 32-73 60-116l34-45c7-8 36-26 51-26zm-1436 937h358c4-7 7-14 10-22s7-14 11-22 6-14 10-22l62-133c4-7 8-15 11-22 10-24 59-120 63-133h112c-2 8-6 14-9 22l-136 288c-4 8-7 13-11 21-3 8-7 15-10 23h354c1-6 4-10 6-15l49-102c4-11 8-18 13-29 3-5 4-9 7-14 22-44 41-89 63-132 5-10 9-20 14-30l34-72c3-5 4-9 7-15l42-88c9-22 30-64 42-87l27-58c38-76 74-158 111-235l14-30c4-7 13-22 14-30h-353c-18 35-40 87-59 125-24 48-46 97-70 146l-20 42c-3 5-9 15-10 22h-111c2-10 23-51 29-62 4-7 6-14 10-22l99-209c4-7 6-13 9-21l10-21h-357l-104 218c-2 6-5 10-7 15-24 48-45 99-69 147l-84 175c-4 10-9 19-14 29-9 20-18 39-27 58l-14 30c-27 52-51 108-77 161l-49 104zm-717 0h484c22 0 56-8 73-15 11-4 20-9 29-15 27-18 49-39 64-68 19-37 42-81 57-119l35-74c6-11 48-102 49-108h-318c-2 8-13 27-17 36l-35 71c-6 13-12 24-18 36h-110c3-9 14-30 19-41l107-233c3-5 4-9 6-13l33-70c4-9 8-17 12-27 3-5 4-9 6-13l19-43h116c-15 28-35 76-50 107-3 6-16 33-17 38h326l80-177c6-12 11-24 17-36l12-26c18-38 20-78-6-113-7-8-32-34-44-34h-606c-10 0-25 8-32 13-11 6-18 9-30 18-20 17-29 29-42 51s-20 44-30 64l-60 127c-3 6-4 11-7 16s-5 10-8 16l-30 64c-5 11-9 21-15 32-3 6-4 10-7 15l-8 16c-5 12-9 22-15 33l-30 64c-2 5-4 9-7 15l-53 112c-10 22-19 42-30 64-31 62-58 111-15 171 7 9 14 17 24 24 17 13 43 22 72 22zm-886-110c0 21 9 50 21 66 12 17 29 30 51 36 41 13 116 8 169 8h351c1-6 4-10 6-16l106-223c3-6 6-10 7-17h-295c2-4 3-7 5-12s4-8 6-12l35-74h297l87-183c3-9 27-55 29-62h-294c2-10 39-86 40-95h298l78-166c3-6 5-10 7-16l29-61h-584c-17 0-25 2-42 12-34 22-59 60-79 95l-150 316c-4 7-5 12-9 19l-93 198c-4 6-6 14-10 20l-46 99c-6 13-11 16-17 42-1 6-3 20-3 26z"/>
      <path class="fil0" d="M10922 11027c0 24 0 34 14 57 25 42 61 51 116 54 9 0 15 1 26 1s18 1 27 2c16 1 39 0 57 0l82-2c12 0 18-1 27-1-8-6-28-6-63-33-12-9-37-39-37-59 0-34 4-46 17-75l127-269c5-9 8-17 13-27l77-162c3-5 4-9 6-14l84-176c17-38 32-67 67-92 13-10 28-20 43-26l4-2c4-2 1 0 4-2h-237c-28 0-47 10-66 27-27 24-44 46-61 80l-16 32c-6 11-10 21-15 33-30 61-61 135-91 194l-45 97c-17 33-36 80-53 113l-15 32c-22 43-46 102-68 146l-8 16c-6 16-16 31-16 56z"/>
      <path class="fil0" d="M10820 11139h84c9 0 10-1 18-1-5-4-40-13-64-38s-40-72-23-108l51-108c34-68 68-149 102-216l76-162c2-5 3-9 6-13l12-27c3-5 5-9 7-14l25-54c2-4 4-9 6-13 29-58 48-119 102-157 7-5 16-11 25-15l27-12h-169c-10 0-17 0-18 1-14 4-43 20-55 28-24 18-44 51-56 79-3 6-6 12-9 19-30 60-66 139-96 203-4 6-5 11-9 18-29 58-58 126-87 184-4 7-6 12-9 19-3 6-6 13-9 19l-103 222c-11 30-10 63 5 89 11 17 39 43 60 49 25 7 70 8 101 8z"/>
      <path class="fil0" d="M10431 11020c0 37 12 77 42 98 41 27 121 18 171 18-10-9-57-7-84-61-22-45-9-65 11-106 4-8 8-18 13-27 21-43 42-91 64-135 5-10 8-18 13-27 32-64 64-138 97-203l110-232c14-32 21-47 41-79 28-45 53-47 91-63 1 0 2-1 2-1l-119-1h-13c-6 0-6 1-12 4-37 16-74 46-92 83-3 5-4 9-7 15l-34 73c-2 5-5 9-7 14l-56 119c-3 6-4 11-7 16l-14 29c-16 32-32 72-48 104l-140 297c-9 17-22 41-22 65z"/>
      <path class="fil0" d="M10274 11043c1 13 4 24 13 40 21 35 56 56 103 56 13 0 21-2 32-3-6-5-115-35-80-130 2-6 4-8 6-13 3-7 4-9 6-15 5-9 9-17 13-27 3-5 4-9 7-14 2-5 4-9 6-14l103-219c3-5 4-8 6-14 2-5 4-8 7-13 3-6 4-9 6-15l84-178c29-57 61-134 90-193 5-10 8-17 15-26 34-37 50-44 93-62l5-2h-71c-18 2-34 11-61 33-15 12-29 28-39 44-18 26-21 39-35 68l-140 296c-2 5-3 9-6 14l-13 28c-29 58-57 124-86 182-3 5-5 9-7 14-3 5-4 9-7 14l-40 84c-5 9-10 19-10 33v32zm4589 85c-30 0-58-29-58-54 0-18 5-36 18-47 36-31 96-11 96 42 0 19-7 32-16 41-8 8-25 18-40 18zm-71-63c0 16 3 34 13 47 3 3 5 6 8 9 26 22 48 23 77 13 40-13 61-76 22-115-6-7-10-11-21-14-29-10-50-10-77 12-12 9-22 32-22 48z"/>
      <path class="fil0" d="M14862 11065h-16v-21h14c10 0 14 4 18 10-2 8-6 11-16 11zm-30 44h14v-32c13 0 16 1 23 12 4 7 7 14 10 20h16c-1-6-6-14-10-18-5-7-10-11-14-17 25-2 23-41 0-41h-39v76z"/>
    </g>
    <path class="fil0" d="M26749 9132c184 0 94 7 159 63 63 56 106-24 133-59 37-49 210-249 61-266-44-5-105 54-148 72-49 20-369 19-434 10v-347c74-13 306-7 391-4 126 5 211 124 270 120 40-3 88-64 56-117-22-37-55-79-80-114-31-44-41-76-114-78l-969 4c-53 13-61 90-14 123 70 50 61 26 61 136-1 122 7 719-1 779-9 70-76 53-98 98-32 66 19 101 79 102 255 5 516 0 772 0 233 0 208 26 299-94 17-23 72-92 80-113 25-60-24-102-85-93-24 4-100 55-124 70-51 33-72 43-141 50-80 9-301 9-382 1l1-342c70-6 157-1 228-1zm1558-697c-12 0-129-31-208-38-208-17-410 65-541 199-349 358-204 1075 533 1072 153-1 273-40 395-97 37-18 130-71 150-97 28-35 14-70-9-94-37-37-25-96-25-173 0-85 32-76 60-124 38-64-12-102-77-102h-378c-88 0-104 69-46 117 70 58 65 25 65 171 0 74 15 163-37 198-78 53-318 52-395-249-34-133-22-281 24-400 42-110 102-211 221-234 125-25 236 62 322 137 30 27 89 91 151 43 50-39 27-125 2-181-21-47-59-101-85-146-15-27-20-57-60-56s-38 30-62 54zm-3278 502c20 27 51 103 65 136 46 109 99 165-26 163-134-2-204 21-161-67l97-211c21-34-1-13 25-21zm-486 717c51 0 215 7 253-3 32-8 49-41 31-79-15-32-48-37-68-64 1-25 20-65 39-77 27-17 81-8 116-8h239c132-1 107 0 180 182 17 42 26 47 74 47h363c95 0 95-90 32-122-90-46-87-27-129-126l-378-879c-57-131-19-113-297-113-125 0-229-17-232 55-3 52 28 65 66 81 57 23 52 17 75 72 22 53 21 61-5 112l-141 299c-61 134-124 260-184 395-56 125-95 63-169 123-30 25-36 78-2 96 21 12 107 9 137 9zm723 277l138 346h103c22-27 65-165 87-209 13 15 77 179 87 209h107c19-51 134-322 134-349h-100c-21 44-71 189-90 210l-85-209-105 1-84 207c-10-11-6-6-14-24l-75-185-103 3zm1178 84c163-36 193 67 90 67-24 0-66 2-89-2l-1-65zm162 138c41-17 70-33 79-82 33-187-230-143-340-143l1 350 98-1 1-165c20 8 109 142 138 165h107c-14-37-69-84-84-124zm2010-142c11-13 40-62 44-82h-76c-123 0-270-23-268 111 2 160 187 76 246 123 0 34-18 36-54 36l-192 1v76l176 2c94 0 167-10 167-109 2-171-231-65-247-126-9-33 25-31 53-31l151-1zm-2376 0c13-24 35-55 42-82l-306 1 1 348 288-1-1-81c-193 0-191 18-182-52l157-1-1-82-158-1 1-48 159-1zm1448 1c121-35 164 152 52 184-125 36-171-150-52-184zm204 141c61-256-310-298-364-99-69 249 315 303 364 99zm-2855-142c124-30 155 160 45 186-127 30-166-156-45-186zm-166 137c46 204 420 164 368-85-44-214-425-163-368 85zm2384-137c131-30 154 165 45 187-130 26-159-160-45-187zm205 126c39-253-333-276-371-68-46 248 338 282 371 68zm-2892-56l-2-69c40-2 147-17 147 33 0 49-85 40-145 36zm35 74c66 3 129 8 171-26 48-39 76-201-116-201-55 0-141-5-193 1v348h101l2-168 35 46zm2435-144c10-14 43-64 45-83l-347 1 1 82 110 2 2 264 99-2 2-264h88zm930 267l288-1-1-81h-182l-1-267h-104z" id="_1114396368"/>
    <g id="_1119096976">
      <path class="fil1" d="M16717 12671h270c-4 27-14 51-30 72s-37 38-63 50c-26 13-56 19-91 20-18 0-34-2-48-3-14-2-27-5-40-8s-26-7-40-11l-30 183c11 5 27 10 46 15 20 6 42 10 67 14 24 3 50 5 76 5 57 0 110-8 159-25 50-17 93-43 132-78 38-34 68-78 89-131 22-53 33-116 33-188 0-65-11-124-31-178-21-54-51-100-89-138-32-31-69-55-114-71-44-17-94-26-149-26-29 0-58 2-85 6-28 3-52 9-75 15-22 6-40 13-54 20l38 174c10-4 22-9 34-12 13-5 27-8 44-10 17-3 36-4 58-4 32 0 60 6 83 17 23 12 41 28 55 50 13 21 22 46 25 74h-270v168zm611-485v809h249v-322h16c11 0 20 6 30 16 9 11 18 26 25 44s13 39 18 61c8 44 17 83 27 118 9 34 20 61 32 83h251c-6-13-12-30-20-51-7-20-14-42-21-65s-13-45-18-66c-6-21-10-40-13-55-6-34-14-67-24-98-10-32-23-59-39-82-16-24-35-41-57-52l187-340h-259l-109 311h-26v-311h-249zm975 822c24 1 51-3 79-10 29-8 58-20 87-38 28-18 54-43 78-75s43-72 58-121c14-49 21-108 22-177 0-61-7-117-21-167-14-51-35-95-62-131-28-37-61-66-102-86-40-20-87-30-139-30-43 0-84 8-123 25-40 17-75 43-106 77-31 35-56 79-74 132-18 52-27 115-28 187 0 85 13 158 38 220s62 109 111 143c48 34 109 51 180 51h2zm1-190c-19-1-35-10-47-29-12-18-20-45-26-79-5-34-7-74-7-121 0-27 1-54 3-80 2-27 6-51 12-73s14-39 24-52c11-13 24-20 40-20 14 0 25 7 35 20 9 13 17 30 22 52s9 46 12 73c2 26 3 53 3 80 0 29-1 57-3 84-3 27-7 52-12 74-5 21-12 38-21 51s-20 19-33 20h-2zm404 177c18 2 38 4 62 6 23 1 48 2 74 3s52 1 78 1c28 0 59-1 92-3s67-6 102-12c34-6 67-14 99-26 32-11 60-26 85-45 25-18 45-41 60-68s22-60 22-98c0-30-7-57-22-83-14-26-35-48-64-66-28-18-62-30-103-36v-5c27-6 52-17 75-33 24-15 43-36 57-61 15-25 22-56 23-91-1-37-9-69-26-94-16-25-39-45-66-60-28-15-59-26-92-33-34-8-68-13-102-15s-66-4-96-3c-30 0-60 1-91 2-30 1-60 3-88 6s-55 6-79 10v804zm245-656c13-3 30-5 49-5 36 0 63 8 82 22 19 15 28 35 29 60 0 19-5 34-15 47s-23 23-40 29-37 10-61 10h-44v-163zm-2 322h50c25 0 48 4 67 11 20 7 35 17 46 30 11 14 16 31 17 51-1 22-7 40-19 53-13 13-29 23-48 29-20 6-41 9-63 9-8 0-16 0-25-1s-17-2-25-4v-178zm1116 35c3-12 5-28 6-48 2-21 2-48 2-82 0-90-12-165-36-223-25-58-59-101-103-129s-95-42-155-41c-48 0-93 10-134 29-42 20-79 48-110 86-32 37-56 83-74 137-18 55-27 116-27 185 0 86 14 157 42 216s69 103 123 133c53 31 119 46 196 46 30 0 60-2 89-5s57-7 83-12c26-6 49-12 69-19l-32-181c-21 7-46 13-73 18s-57 8-89 8c-33 0-61-5-85-14s-43-23-56-41c-14-17-21-39-22-63h386zm-386-176c0-18 1-36 4-55s8-37 15-53c7-17 16-30 27-41 11-10 25-15 41-16 16 1 29 5 40 15 10 9 18 22 24 38s10 33 12 53c2 19 3 39 3 59h-166zm477 791h254v-375h3c8 12 18 23 30 34 13 11 28 20 44 27 17 7 36 11 56 11 36 0 70-8 102-25s60-43 85-78c25-34 45-77 59-130 14-52 22-114 22-184 0-42-3-83-8-123-6-40-15-78-27-113-12-36-28-67-48-95-20-27-44-48-73-64-29-15-62-23-101-23-26 0-51 5-73 14s-41 21-57 37c-16 15-29 33-39 52h-3l-13-90h-219c1 43 3 86 4 129 2 43 2 86 2 129v867zm254-832c0-10 0-20 2-30s5-19 9-26c5-12 13-21 22-27 10-6 21-9 32-9 17-1 31 6 43 20 13 14 23 36 30 66s11 70 11 119c0 28-1 55-5 80-3 25-8 47-15 67-7 19-16 34-27 45s-24 17-40 17c-10 0-19-2-27-8-8-5-16-12-22-23-4-8-8-18-10-30s-3-25-3-39v-222z"/>
      <path class="fil0" d="M21222 12186c32 128 50 262 50 401 0 141-18 278-52 408h-288c34-130 52-267 52-408 0-139-17-273-50-401h288zm402 0c33 128 50 262 50 401 0 141-18 278-52 408h-288c34-130 52-267 52-408 0-139-17-273-50-401h288zm-5832 0c-33 128-50 262-50 401 0 141 18 278 52 408h287c-33-130-52-267-52-408 0-139 18-273 50-401h-287zm402 0c-33 128-50 262-50 401 0 141 18 278 52 408h288c-34-130-52-267-52-408 0-139 17-273 50-401h-288z"/>
      <path class="fil1" d="M17545 11736c-8 4-17 7-27 9-9 1-23 3-41 4-27 1-48 8-61 20-14 12-26 31-35 58 9-8 20-14 32-19 13-4 25-7 37-7 24 0 43 7 57 21s21 33 21 57c0 32-11 61-32 86-21 26-50 38-86 38-25 0-45-8-59-23-14-16-21-37-21-65 0-31 7-65 21-101s31-61 52-75c21-15 48-23 82-25 23-1 40-5 51-10l9 32zm-129 237c20 0 37-9 52-27 14-18 22-39 22-63 0-35-18-53-52-53-6 0-14 2-22 4s-16 5-26 10c-9 5-15 11-17 17-1 6-3 15-4 25-2 10-2 20-2 29 0 19 4 33 13 43s21 15 36 15zm329-167l-25 120c-1 7-2 15-2 22 0 17 4 34 11 51h-37c-5-8-8-17-10-27-8 11-18 18-28 24-11 5-23 7-35 7-19 0-34-6-46-17-12-12-18-29-18-52 0-39 11-72 34-101s51-44 85-44c32 0 56 6 71 17zm-40 22c-4-6-16-9-35-9-20 0-38 11-53 33-16 21-24 48-24 80 0 27 12 41 35 41 11 0 21-3 30-9 9-5 15-11 18-17 4-5 7-16 10-31l19-88zm85-27c22-8 46-11 71-11 18 0 33 4 45 13s18 21 18 36c0 26-15 43-47 53 24 7 36 22 36 43 0 20-8 37-24 49-17 13-39 19-68 19-27 0-49-5-69-16l20-35c16 14 35 21 56 21 14 0 26-3 34-10 9-7 13-17 13-29 0-19-13-29-40-29-9 0-17 1-24 2l6-30c2 1 10 1 23 1 15 0 26-3 34-10 8-6 12-14 12-24 0-8-3-14-8-18-6-4-13-6-23-6-18 0-37 5-56 15l-9-34zm350 5l-25 120c-2 7-2 15-2 22 0 17 3 34 11 51h-37c-5-8-8-17-10-27-8 11-18 18-29 24-10 5-22 7-34 7-19 0-35-6-46-17-12-12-18-29-18-52 0-39 11-72 34-101 22-29 51-44 85-44 32 0 55 6 71 17zm-41 22c-3-6-15-9-34-9-20 0-38 11-54 33-15 21-23 48-23 80 0 27 12 41 35 41 11 0 20-3 30-9 9-5 15-11 18-17 4-5 7-16 10-31l18-88zm273-34l-36 205h-37l31-175h-58c-9 40-17 71-26 93-8 21-17 38-27 51s-21 22-33 27c-11 5-24 7-39 7h-3l7-34c22 0 41-14 54-43 14-28 27-72 39-131h128zm80 82c19-6 36-9 52-9 22 0 39 6 51 17 13 11 19 26 19 45 0 23-9 41-26 54-17 14-41 20-73 20-13 0-28-1-43-5-16-3-28-8-38-13l37-191h37l-16 82zm-17 87c2 3 8 6 16 8 9 2 18 3 28 3 16 0 29-4 40-11 12-7 17-18 17-32 0-22-14-34-41-34-14 0-30 3-48 8l-12 58zm409 36l18-99c5-25 7-40 7-46 0-22-11-34-34-34-7 0-13 2-20 5s-15 11-25 22l-27 152h-37l26-146v-6c0-18-12-27-36-27-9 0-19 4-29 12s-15 13-16 15l-27 152h-37l27-149c0-5 1-11 1-19 0-13-1-25-4-34l35-7c3 9 4 18 4 27 6-9 15-16 26-20 12-5 24-7 37-7 29 0 48 9 57 27 6-8 15-14 26-20 12-5 24-7 36-7 38 0 56 17 56 53 0 7 0 13-2 19l-24 137h-38zm98-75c0-23 4-44 13-65s23-38 40-50c18-13 38-19 61-19 24 0 43 6 57 20 13 13 20 32 20 58 0 36-11 68-31 95-21 27-49 40-84 40-25 0-43-7-57-20-13-14-19-34-19-59zm38-3c0 35 14 52 43 52 22 0 39-10 52-32 13-21 19-45 19-72 0-33-14-49-44-49-21 0-38 10-51 31s-19 44-19 70zm362-80c0 12-5 24-14 33-9 10-21 17-36 20 14 3 24 9 31 16 8 8 11 18 11 28 0 19-8 34-25 47-17 12-42 19-75 19-12 0-26-2-41-5-16-4-26-7-31-9-4-3-7-6-7-9 0-1 3-19 10-52 8-40 12-63 14-69 4-13 9-24 16-33s14-17 23-22c8-6 18-10 27-13 10-2 20-4 31-4 20 0 36 5 48 15s18 23 18 38zm-134 41h35c42 0 63-13 63-38 0-8-2-15-8-20s-14-8-25-8c-36 0-58 22-65 66zm-15 82c2 4 8 6 17 9 9 2 19 3 29 3 18 0 32-3 43-10 11-6 16-16 16-28 0-9-4-16-11-22s-18-9-34-9h-50l-10 57zm369-158l-25 120c-1 7-2 15-2 22 0 17 4 34 11 51h-37c-5-8-8-17-10-27-8 11-18 18-28 24-11 5-22 7-35 7-19 0-34-6-46-17-12-12-18-29-18-52 0-39 11-72 34-101s51-44 85-44c32 0 56 6 71 17zm-40 22c-4-6-16-9-35-9-20 0-38 11-53 33-16 21-24 48-24 80 0 27 12 41 35 41 11 0 21-3 30-9 9-5 15-11 19-17 3-5 6-16 9-31l19-88zm127 76c-27-5-40-19-40-42 0-20 8-36 25-50s42-21 72-21c14 0 27 1 39 3 13 2 20 3 23 5 2 1 3 3 3 5v3l-34 192h-35l15-83h-14c-21 0-36 4-48 12-11 8-20 21-25 38-8 24-24 35-47 35h-14l6-32c1 1 4 1 7 1 6 0 11-5 14-13 5-15 12-26 20-34s19-14 33-19zm84-80c-5-3-17-5-35-5-16 0-28 4-38 11-9 7-14 16-14 28 0 6 1 12 5 17 3 4 8 8 15 11 7 2 15 4 25 4h30l12-66zm315-29l-24 134c-1 2-1 6-1 12 0 21 11 32 33 32 13 0 26-5 39-15 13-11 21-23 24-39l22-124h38l-37 204h-38l5-29c-14 22-39 33-74 33-16 0-28-4-37-14-9-9-14-23-14-40 0-6 1-12 2-18l24-136h38zm175 8c22-8 46-12 70-12 18 0 33 5 45 13 12 9 18 21 18 36 0 26-15 43-46 52 23 8 35 22 35 44 0 20-8 36-24 48-16 13-39 19-68 19-26 0-48-5-67-16l19-35c16 14 35 22 55 22 15 0 26-4 35-11 8-7 12-17 12-28 0-19-13-29-39-29-9 0-17 1-24 1l6-29c2 1 10 1 23 1 14 0 25-3 33-10 8-6 12-14 12-24 0-8-2-13-8-18-5-4-13-6-23-6-18 0-36 5-55 16l-9-34zm158 121c0-22 4-43 13-64 10-21 23-37 40-50 18-13 38-19 60-19 25 0 44 7 57 20s20 33 20 58c0 36-11 67-31 94-21 27-49 40-83 40-25 0-43-7-56-20-13-14-20-33-20-59zm38-2c0 34 14 52 43 52 22 0 39-11 51-32 13-22 20-45 20-72 0-33-15-49-44-49-21 0-38 10-51 31s-19 44-19 70zm383-127l-37 204h-36l30-173h-57c-9 39-17 70-26 91-8 22-17 39-27 51-10 13-21 22-32 27-12 5-25 7-39 7h-3l7-34c22 0 40-14 54-42s26-72 38-131h128zm85 110c-27-5-40-19-40-42 0-20 8-36 25-50s41-21 72-21c13 0 26 1 38 3s20 4 22 5c3 1 4 3 4 6v3l-34 190h-35l15-82h-14c-20 0-36 4-47 11-12 8-20 21-26 39-7 23-23 34-46 34h-14l6-31h7c6 0 11-4 14-13 5-14 12-25 20-34 8-8 19-14 33-18zm83-79c-5-4-17-6-35-6-15 0-28 4-37 11-10 7-15 16-15 28 0 6 2 12 5 17 4 4 9 8 16 11 6 2 14 3 24 3l30 1 12-65zm261 149l-18 91h-34l14-65c-16 0-24-9-27-28-18 20-41 30-69 30-19 0-33-4-43-14-10-9-14-23-14-41 0-7 0-14 1-20l24-133h39l-17 92c-4 24-6 39-7 43 0 4-1 8-1 12 0 10 3 18 9 23s15 8 26 8c8 0 17-3 27-8s19-11 25-19l27-151h37l-27 150c-1 4-1 8-1 11 0 7 2 11 7 15 4 3 12 4 22 4zm105-180l-24 134c-1 2-1 6-1 12 0 21 11 32 33 32 13 0 26-5 39-15 13-11 21-23 23-39l23-124h38l-37 204h-38l5-29c-14 22-39 33-74 33-16 0-28-4-37-14-9-9-14-23-14-40 0-6 1-12 2-18l24-136h38zm217 110c-27-5-40-19-40-42 0-20 8-36 25-50s41-21 71-21c14 0 27 1 39 3s19 4 22 5 4 3 4 6c0 0 0 1-1 3l-33 190h-35l15-82h-14c-20 0-36 4-47 11-12 8-20 21-26 39-7 23-23 34-46 34h-14l6-31h7c6 0 11-4 14-13 5-14 12-25 20-34 8-8 19-14 33-18zm83-79c-6-4-17-6-35-6-15 0-28 4-37 11-10 7-15 16-15 28 0 6 2 12 5 17 4 4 9 8 15 11 7 2 15 3 25 3l30 1 12-65z"/>
    </g>
    <path class="fil0" d="M17590 3636c6-93 0-206 0-301 0-94 22-163 142-163 112 1 140 61 140 167 0 88-7 215 1 300l316-1v-952l-251 3-1 196h-80l-2-199h-247c-11 33 3 153-4 200l-78-1c-7-45 6-168-5-199h-248v952l317-2zm2223-354l206-1 3-248 158 2v247l210-1v-594h-209l-1 280-159-1v-276c-21-8-177-4-210-3l2 595zm3912-408c21-30 54-59 79-89 17-21 71-74 79-95h-24c-82 0-83-9-113 24l-143 160c-26 28-37 55-67 52-7-74 5-178-5-236h-198c-13 0-11 7-11 19v573h212l1-306c22 7 85 87 101 108 31 39 65 74 96 113 73 92 181 89 332 85-5-14-216-261-255-305-17-20-77-87-84-103zm-5135-64l167 1 1 471h188v-596h-546l1 596h187zm2203-81c122-25 142 111 143 215 1 109 1 246-97 266-122 25-143-110-144-214-2-104-4-245 98-267zm-318 271c45 406 714 367 682-60-13-182-172-295-372-284-180 11-331 146-310 344zm1153 282h175c7-23 5-533 3-594h-538l-1 593h185c-2-53-5-452 2-472 24-6 147-6 169 0 13 85-9 423 5 473zm531-469l2 2 142 315c24 55 40 114 94 137 44 19 152 19 208 14-4-21-30-69-41-95l-213-473c-19-30-58-34-105-34-44 0-92-2-135 1l-252 602h96l204-469zm2414 280c-18 40-24 67-59 88-188 112-235-347-106-440 41-29 152-34 160 100h135c-3-163-202-200-365-178-323 44-314 559 14 615 123 21 350-3 349-185h-128zm-5213-151c-5-20-4-148-1-171h293v-85h-509v280c0 230-35 316 237 316 62 0 221 8 272-1l-1-84h-293l1-170h218v-85h-217zm3418-131c17-36 27-56 55-75 80-55 185 3 186 161h-204v82l203 1c13 121-69 274-189 203-31-19-45-45-50-96l-119 1c-1 137 171 217 322 188 306-60 308-513 27-608-156-53-348 19-344 144l113-1zm-3721 766c-32-9-32-92 0-105l1 19v61l-1 25zm37 0v-105c19 6 24 29 24 50 1 26-5 49-24 55zm-36-163c-4 50 0 20-33 44-32 23-58 123 32 149l1 33h36l1-33c43-12 61-34 60-85s-21-64-60-79l-2-30-35 1zm-257 58c20 10 24 27 24 54-1 27-6 45-24 52v-106zm-37 105c-14-6-15-5-20-24-5-18-5-44 1-62 6-14 7-13 19-19v105zm39 29c81-16 81-144-2-162l-1-31-36 1-1 31c-81 17-83 145 0 161l1 34 36-1 3-33z"/>
    <path class="fil0" d="M19813 3282l-2-595c33-1 189-5 210 3v276l159 1 1-280h209v594l-210 1v-247l-158-2-3 248c8-6 6 9 7-11v-232h150l1 244c26 12 183 8 219 3 6-51 6-576-3-602-26-7-195-9-217 2v278h-150l-2-279c-29-10-77-4-109-4-28 0-84-7-107 5-5 28-2 454-2 528 0 26-5 63 7 69zm1815 0c-14-50 8-388-5-473-22-6-145-6-169 0-7 20-4 419-2 472h-185l1-593h538c2 61 4 571-3 594 8-5 9 11 8-34-2-116 7-523-2-565l-544 2c-8 30-7 545-2 598 24 6 165 5 192 0l1-471 164 1c3 124 0 287 0 418 0 9-1 22-1 31 1 19-3 15 9 20zm2439 320l93 1c10 41-12 43 35 42 1-12 3-43 2-54-5-43-13 6-15-38-1-34 1-71 1-106h-42l-1 121-31-1-1-120-41 1v154zm789-838l-2-45c23-1 30 1 44 7 5 38-7 38-42 38zm-10 62c13-6 7 0 9-48 44-1 29 25 67 47l9 5c1 0 2 1 3 2-114 66-177-61-118-123 30-32 78-40 116-7 47 39 27 86 11 121-18-5-36-34-48-48 10-12 35-29 16-57-11-16-48-15-72-12l-1 95c0 19-4 19 8 25zm-69-43c17 126 216 110 201-30-14-130-220-114-201 30zm-4447 754c20-1 26 2 37 11v18c-13 11-14 13-38 10l1-39zm1-64c19-2 21-1 31 10 1 23-9 27-33 25l2-35zm46 48c12-11 22-11 25-30 9-56-78-47-114-43l2 155c140 15 141-61 87-82zm-271-8v89h37v-155l-37 1c-12 14-36 79-42 99l1-100-37 1 2 155h37l39-90zm2731 89c15-7 3 3 13-11l34-85v96h37v-155l-41 2-38 94v-96h-37l1 155h31zm-2245-60h31l2 61 40-1v-154h-41l-1 57-32 1v-58l-42-1v156l41-1zm3778 61c15-27 25-57 37-89 7 10 3 69 3 88h38v-155c-50 0-38-3-55 39-7 18-19 42-24 60l1-99-38 1 3 155h35zm-2294-121l33-1 1 122h40v-156l-116 2 1 154h41zm-976 2c8-9 11-13 31-11l-1 42c-23 2-31-8-30-31zm71-35c-32-5-79-6-100 12-41 35 13 67 15 70-19 17-30 39-35 72l40-1c12-28 8-56 37-59 6 15 3 40 3 59l40-1v-152zm2711 24l-2 44c-18-2-20-4-30-12l3-29 29-3zm39-25c-35-3-84-6-103 15-27 30-3 53 22 66-24 16-32 41-39 74h40c14-28 6-56 40-60v59h40v-154zm-1634 155c62 12 52-86 54-104 2-20-2-11 7-17 16-8 14 5 14 5 6 9 0 86 4 116l40-1v-155l-104 1c0 28 2 59-1 86-4 50-23 17-14 69zm1263 2c65-6 42-67 51-110 4-21-8-11 11-14s10 6 10 6c4 7 3 30 2 39 0 25-2 53 2 77l40-1v-155l-103 1c-1 28 2 69-2 95-5 32-32 25-11 62zm-2700-31c-14-22-9-46 24-45 3 28 4 44-24 45zm-5-70c-7 2-15 6-21 10-54 37 1 127 48 78 20 8-5 4 17 9 9 2 19 1 28 1-4-95 21-187-105-147l6 25c22 4 45-21 55 16l-14 5c-4 1-9 2-14 3zm2510 69c-22-15-27-88 4-96 15 11 16 30 15 54-1 23-1 36-19 42zm-55-16c19 83 141 58 113-63-21-87-140-55-113 63zm-698 15c-14-11-14-30-14-50 1-33 3-39 19-45 23 13 26 92-5 95zm-54-24c13 91 136 74 115-48-15-90-133-70-115 48zm-2889-101h-35c-22 12-17 50-38 61v-61l-41 1 2 155h36c5-20-1-47 6-64 23 8 20 37 32 64l39-1c-1-11-10-40-14-51-7-27-16-26-22-42l35-62zm-327 63c1-19 0-28 18-35 17 6 16 15 17 35h-35zm62 59c-33 3-61 10-62-29h71c15-122-90-119-110-41-14 58 9 114 82 105 30-4 23-9 19-35zm2428-59c0-23 0-30 19-35 15 10 14 12 15 35h-34zm61 61c-32-3-61 12-62-31l72-1c13-109-77-119-104-57-19 41-27 142 97 117l-3-28zm-3358-32c-7 37-25 29-60 33-3 16-6 15 0 29 139 31 140-188-2-150l4 27c35-1 53-5 57 31l-51 2 1 26 51 2zm4615-16c-5-4-4-2-8-6 57-24 15-100-72-63l4 24c21-1 27-6 47 0 10 36-15 23-34 35v18c16 12 22-2 42 17l-1 17c-22 17-28 8-58 6l-4 25c42 24 121 1 105-50-3-7-6-11-13-17-5-3-4-2-8-6zm-3323-42l1 122h40l1-121 34-4v-31l-111 2 1 31zm1757 0l1 122h40l1-121 34-4v-31l-111 3 1 30zM4006 1423h-593c39-72 221-332 295-338 91-8 262 254 298 338zm-677 36l-16-25c13-32 202-285 249-352 39-56 58-76 133-69-26 16-37 12-59 40-67 79-266 371-307 406zm-22-91l-145-216-196 271-248-2c82-143 204-307 298-446 65-95 226-404 338-405 105 0 146 98 196 173 24 38 48 75 73 112 44 67 78 74 11 92-65 18-266 348-327 421zm-313-428c-73-52 80-219 118-278 50-76 136-245 256-164-41 22-68-19-128 73-57 88-217 311-246 369zm-961 483c164-291 405-618 592-903 282-428 356-709 704-106-128-7-157 87-219 182-47 72-118 167-158 241l-136-216c-93 106-238 341-323 468-52 79-107 157-161 235-96 141-115 100-299 99zm-641 74l2712-4c-91-165-248-334-343-492-104-174-228-336-333-506-72-115-241-431-356-479-184-76-340 265-421 395-11 1-142-207-160-235-70-106-88-218-159-104-99 158-210 317-314 473-189 283-471 665-626 952zm2043 353c-35 119-102 249-141 379-33 108-49 108 51 161 103 55 107 5 122-87 20-127 81-267 137-383 104-215-9-235-198-235-309 0-169 25-261 245-35 85-140 315-111 396 21 58 138 107 159 48 46-130 105-536 242-524z"/>
    <g id="_1119247008">
      <path class="fil0" d="M6060 1358c-15 7-28 23-45 35-15 10-32 19-51 27-136 56-278-29-275-163 3-137 161-238 327-118l32 25c4 3 2 2 7 5l-3-339c-41-9-76-22-122-28-134-20-253-2-363 71-365 240-232 831 223 855 58 3 223-7 262-37l8-333zm344-44c5-115 137-106 145 1l-145-1zm451 133c11-215-125-351-313-379-220-34-390 75-434 249-55 222 89 369 271 402 105 19 211 9 299-33 69-32 147-97 163-182h-302c-13 64-135 98-135-57h451zm899-132c6-121 140-102 145 0h-145zm137 190c-9 15-27 71-93 46-37-14-44-55-44-104l451-1c4-155-57-271-182-335-40-21-79-35-129-43-495-82-623 565-164 651 184 35 421-35 461-215l-300 1zm1330-424l-30 1 1 242 75-4v395l312-1v-395l104 5v-243l-102 3c-7-12-4-182-2-211h-309v214c-17 2-36 1-49-6zm-520 209c9-11 72-156 76-176-23-8-46-20-75-29-180-54-465-21-470 194-4 200 230 165 256 202 25 35-16 93-152 23-19-10-47-29-66-36l-78 191c24 7 52 21 78 30 87 29 179 49 273 36 260-35 291-246 215-341-59-75-190-71-224-88-28-14-26-50 11-56 66-11 123 35 156 50z"/>
      <path class="fil0" d="M7202 1075h-309v640h311c0-63-8-263 10-306 15-38 43-61 91-67 62-8 74 16 116 32l-2-312c-174-13-189 86-222 99l5-86zm1634 640h310l-1-640-310 1zm121-982c-213 35-169 329 72 292 212-32 164-331-72-292zm264 348c13 7 32 8 49 6V873h309c-2 29-5 199 2 211V870c-36-2-296-4-315 2v212l-45-3zm-4448 606c-24 29-68 134-88 174-56 113-132 131-89 45 34-66 87-115 23-171-68-58-103-91-144 11-25 61-56 121-80 182-29 74-16 35-61 68-29 22 1 65-9 111-13 57-66 147-58 203 9 67 93 120 149 106 27-51 65-318 146-280 33 80-140 177 24 268 141 77 118-91 149-196 28-97 72-187 114-278 30-66 53-73 24-148-17-41-45-102-100-95z"/>
    </g>
    <path class="fil0" d="M944 2097l6-9c8 14 0 8 0 8-20 74-131 233-38 283 161 85 138-56 169-173 26-97 67-198 110-290 16-34 59-104 44-140-26-61-111-91-117-96l-228 317-6 9c-10-17-1-6 1-9 17-76 127-245 57-285-136-78-142 39-185 153-37 97-70 195-102 294-14 42-49 118-26 158 19 31 76 87 114 84l201-304zm1268-139c-15 94-212 382-159 215 8-24 195-434 159-215zm179 17c4-49-1-241-73-241-91 1-25 34-95-35-37-36-76-8-106 20-132 123-198 221-237 400-41 191 90 366 275 253 130-78 223-248 236-397zm1617-38l4-10c3 5 8-7 2 11l-38 127-47 2c8-30 56-108 79-130zm-98 284c11-7 11-5 25-5 0 17 5 4-5 13l-40 129 9 3c23 27 129 95 168 43 21-28 51-152 61-193 16-68 35-141 47-210 20-115 35-115-31-195l14-51c-46-13-77-195-281 76-36 47-66 100-95 151-61 108-40 62-111 133-9 28 3 64-5 94-7 27-28 43-31 70-4 35 47 100 79 116 131 67 72-168 196-174zm-2292-377l-180 139-7-12c-17 39 2 83 20 118 39 77 61 14 96 38l16 21-153 111-16-22c-29-26-7-99-86-89-156 20-93 259 98 271 148 8 424-191 312-357-47-70 108-94 76-238-23-103-111-158-214-142-60 10-228 74-195 155 62 154 146-51 233 7zm1203 8c-1 27-66 119 30 129 201 19 180-355-51-294-201 54-332 311-345 504-23 351 466 215 402 24-43-132-269 152-193-95 16-54 102-260 157-268z"/>
    <path class="fil0" d="M3930 2229c10-9 5 4 5-13-14 0-14-2-25 5h17c5 4 7-8 3 8zm78-292l6 1c6-18 1-6-2-11l-4 10zm-3118 60h-5c-2 3-11-8-1 9l6-9zm54 100l6-1s8 6 0-8l-6 9zm2903 2926H1419v2511h2428V5023zM1596 7399l199 3c-1-176 0-353 0-529 0-177-30-347 122-411 237-97 395 253 157 364-89 43-148 7-213-28v225c135 23 215 37 333-34 316-190 239-652-114-732-245-56-448 122-480 324-13 82-4 683-4 818zm1711-1503c-67 251-460 150-382-110 73-241 452-145 382 110zm-260-450c-65 13-96 23-148 56-373 238-145 827 295 738 196-39 364-229 320-472-35-192-228-368-467-322zm-86 1574l1-223c-51 24-77 57-161 45-182-26-244-286-53-377 127-60 244 29 272 123 19 63 9 342 9 428l200 1c1-264 50-575-195-713-139-79-298-74-424 9-237 157-257 539 50 692 87 43 206 52 301 15zm-697-772c195-1 382-163 394-345h-210c-70 219-400 164-387-72 7-141 173-250 324-142 21 15 30 28 43 50 43 74-30 59 233 59-17-169-134-285-264-335-77-29-173-31-252-8-229 66-364 333-250 567 57 117 186 226 369 226zm1031 766l398 3v-199l-199-1v-542h-198l-1 739zm-1693-794l197 2 3-769h-200v767zm199-1079c-23-16-66-9-94-9-35 0-71-1-106 3 0 53-11 188 8 212h192v-206zm159 5435c0 4 0 9 2 16 2 2 7 3 14 3h21c10 1 17 0 21-4 4-3 6-9 7-17l31-155c1-4 0-11-3-19-3-3-10-5-21-5h-9l10-53h224l-43 213c-3 14-2 24 2 30 3 5 11 9 24 10h158l40-200h-98l11-55h482c14 0 25 4 32 14 8 10 11 22 8 36-9 45-14 74-16 85-3 14-10 26-22 35-11 10-24 15-38 15 0 0-17 0-49-1 31 10 60 33 85 71h145l41-205c3-14 10-26 22-36 11-10 24-14 38-14h37v-1h11l272 1c8 0 15 1 21 2 15 2 24 7 29 14 6 9 8 21 5 37l-41 202h213l39-200h-98l11-55h482c14 0 25 4 33 14 7 10 10 22 7 36-9 45-14 74-16 85-3 14-10 26-22 35-11 10-24 15-38 15 0 0-16 0-49-1 32 10 60 33 85 71h119l175-200h-79l17-56h165v1h52c12 0 20 5 25 16 3 11 7 23 10 34l86 205h119l-16 55h-350l17-55h45l-13-30h-163l-26 30h37l-16 55h-369c-11 0-19-5-24-13-9-17-25-55-47-112l-14 70h22l-11 55H2667c-11 0-18-5-23-13-10-17-25-55-47-112l-14 70h22l-11 55H1369l16-55h45l-12-30h-164l-26 30h37l-16 55h-180l17-55h79l174-200h-79l17-56h165v1h53c11 0 20 5 25 16 3 11 6 23 10 34l85 205h177c-3-2-7-5-13-11-2-3-3-9-1-18l29-146c2-10 2-16-1-20s-10-5-20-4l-70-1 11-55h236c18-1 30 2 34 9 5 5 5 15 2 29l-3 19-36 179zm1086 314l1 4h-8c-3 0-5 0-5-2-1 0 0-2 0-5 4-20 8-39 11-56 1-4 4-7 8-7h9c3 1 4 1 5 2 1 2 1 4 1 5l-6 29h-3v1h-3v1h-1v1h-2v1h-1v1h-1v1c-4 4-6 12-5 24zm-1696-885h7493c28 0 54 4 78 11 48 15 87 43 114 80 26 37 41 83 41 134 0 28-4 57-14 88l-169 557c-6 23-16 46-28 68-11 21-25 42-40 61-78 100-202 169-320 169H1012c-28 0-54-4-78-11-48-15-87-43-113-80-27-37-42-83-42-134 0-28 5-57 14-88l169-557v-1c7-22 16-45 28-67 11-21 25-42 40-61 78-100 202-169 320-169zm1249 889h33l-4 19h-284c-6 0-11-1-13-3s-3-4-3-6 1-5 2-10l11-58c2-6 2-9 0-10-1-1-5-1-13-1-4 0-6 1-7 3l-1 4-17 81h-943l-167 1-4-76-28 67c-1 2-2 4-5 7-1 1-3 1-6 2l-118-1 4-19h52l-4-60s-1-1-1-3c-1-3-2-5-3-5-1-1-2-1-5-1h-24l4-20h68c7 0 12 2 15 6 2 3 3 8 4 14l3 69 35-81 4-8h43c7 0 12 2 15 6 2 3 4 8 4 14l3 69 25-61c0-1 1-1 1-2 0-3-1-5-3-6h-10l4-19h78l-4 19c-26 0-40 2-42 6l-28 63h127l13-69h-34l4-20h186l-5 26h-65c1-4-1-6-4-6h-17l-5 25h68l-11 20h-61l-5 24h16c4 0 7-2 8-6h65l-2 6h72l13-69h-34l4-20h143l-4 20h-44l-14 69h15c4 0 7-1 9-4 0-1 1-4 2-10h64l-2 14h64l14-69h-34l3-20h169c4 0 8 2 11 5 3 4 4 8 3 13l-14 71h71l14-69h-34l3-20h140l-4 20h-41l-14 69h120l13-69h-34l4-20h99l-1 9c4-5 9-8 16-9h54c5 0 9 2 12 6 2 3 3 8 2 13 0 1 0 2-1 3v3l-13 64h53l14-71c1-5 4-9 8-13 4-3 8-5 13-5h117c5 0 9 2 11 6 3 3 4 8 2 13h1c-1 2-1 4-1 6l-2 8h-65c2-7 2-11 1-12s-5-1-13-1c-3 0-5 0-6 1-2 1-3 3-3 6l-11 56c-1 3-1 4 0 5s3 1 6 1h9c4 0 7-2 8-6l3-18h-9l4-19h73l-8 43zm-1033-89v1-1zm3164 28h-44l1-4v-4h-12l-14 69h72l-3 19h-271c-7 0-11-1-13-3s-3-4-3-6 0-5 1-10l12-58c1-6 1-9 0-10s-6-1-13-1c-4 0-7 1-8 3l-1 4-17 81h-404c-7 0-11-1-13-3s-3-4-3-6 0-5 1-10l12-58c1-6 1-9 0-10s-6-1-13-1c-3 0-5 0-6 1l-3 3v1l-16 83h-65c10-48 15-74 16-77 1-6 1-9 0-10s-6-1-13-1c-3 0-5 0-7 1-1 1-2 3-2 6l-17 81H2733l4-19h34l14-69h-34l3-20h186l-5 26h-64c0-4-2-6-5-6h-17l-5 25h69l-11 20h-62l-5 24h17c3 0 6-2 7-6h65l-2 6h46l14-71c1-5 4-9 8-13 4-3 8-5 13-5h112c3 0 5 1 7 1 5 1 9 3 10 5 2 3 3 7 2 13l-7 36h22l4 19h-22c-2 0-5 1-8 1v1h-1l-2 13h82c-1 0-2-2-4-3-1-2-1-4-1-7l10-51c1-3 1-5 0-7-1-1-3-2-7-1h-24l3-20h83c6 0 10 1 12 3 1 2 1 6 0 11l-1 6-12 63v5c1 1 3 1 5 1h8c3 1 6 0 7-1s2-3 3-6l10-54c1-2 0-4-1-7-1-1-3-1-7-1h-3l3-19h78l-15 74c-1 5 0 9 1 11s4 3 8 3h63l13-69h-34l4-20h139l-4 20h-40l-14 69h115l14-69h-34l4-20h168c5 0 9 2 11 5 3 4 4 8 3 13l-6 29c-1 5-3 9-7 13-4 3-9 5-14 5h-69l-5 24h159l14-69h-35l5-20h99l-2 9c4-5 10-8 17-9h54c7 0 12 4 13 11l3-2c4-5 10-8 17-9h54c5 0 9 2 11 6 3 3 3 8 2 13v3c-1 2-1 3-1 3l-13 64h72l14-69h-35l4-20h186l-5 26h-64c0-4-2-6-5-6h-17l-5 25h69l-11 20h-62l-5 24h16c4 0 7-2 8-6h65l-2 6h72l14-69h-35l4-20h100l-2 9c4-5 10-8 17-9h54c5 0 9 2 11 6 3 3 3 8 2 13v3c-1 2-1 3-1 3l-13 64h89l14-69h-7c-2-1-3 0-4 0-1 1-1 2-2 4v4h-44l6-28h175l-5 28zm-427-28v1-1zm-1363 0v1-1zm5557-6h171l-23 115H6952c-23 0-39-9-49-28-20-35-53-113-98-233l-29 146h45l-23 115H4896l23-115h206l82-418h-205l23-115h817c4 0 9-1 14-1h178c28 0 51 11 67 31 16 21 22 45 16 74l-34 178c-6 29-21 53-46 74-24 20-51 31-80 31h-417l-29 146h879l82-418h-204l23-115 1008-1c28 0 51 11 67 31 17 21 22 45 16 74-18 96-30 155-34 178-6 29-21 54-45 74-24 21-51 31-80 31 0 0-34-1-103-1 67 19 126 68 178 147h291l84-429c6-29 21-53 46-74 24-20 51-31 79-31h79v-1h23l569 1c16 1 30 3 43 5 30 5 50 15 60 29 13 19 17 45 10 77l-85 423zm-2805-268c7-6 12-16 15-32l15-77c0-8-1-18-4-32-5-8-18-11-38-9h-87l-31 157h96c16 1 27-1 34-7zm1280-32l15-77c5-28-6-41-31-41h-98l-31 157h103c23 0 37-13 42-39zm1133 292c7-5 12-15 14-30l67-342c0-6-1-16-3-28-5-7-16-10-33-11h-53c-26 0-42 14-48 42-21 102-43 213-66 332-3 17-3 28-2 33 4 8 13 12 29 12l63-1c15 1 25-1 32-7zm-4410 59c1-1 2-3 3-6l2-13v-5c-1-1-4-2-7-1h-14l-6 26h16c3 0 5 0 6-1zm-1773 42c1-2 3-4 3-8l10-50c1-4 1-7 0-8s-3-2-6-1h-15l-14 69h12c5 0 8 0 10-2zm6921-834H1350c-102 0-210 60-279 148-13 17-25 35-35 54-10 18-18 38-24 58l-169 557c-8 26-11 50-11 73 0 40 11 76 31 104 20 27 49 48 86 59 19 6 40 9 63 9h7493c102 0 210-61 279-148 13-17 25-35 35-54 10-18 18-38 24-58l169-557c8-26 11-50 11-73 0-40-11-76-31-104s-49-48-86-60c-19-5-40-8-63-8zm-7448 452l-30-72-63 72h93zm1282-59l7-37c2-13-3-19-15-19h-47l-14 75h49c11 0 17-6 20-19zm549 140c3-2 5-7 6-14l32-164c0-3 0-8-1-14-3-3-8-4-16-4h-25c-13 0-21 6-23 19-10 49-21 102-32 159-1 9-1 14-1 16 2 4 7 6 14 6l30-1c7 1 12 0 16-3zm678-140l7-37c2-13-3-19-15-19h-46l-15 75h49c11 0 17-6 20-19zm505 59l-29-72-63 72h92z"/>
    <g id="_1113730272">
      <path class="fil0" d="M21009 10119l-348-1-430 1183 344 1 181-479 424-1-172 479 343 1c23 0 106-251 119-289 35-98 68-200 107-300 39-101 73-200 108-300 31-86 86-209 106-295h-348c-6 23-35 73-45 106-13 37-22 72-37 109-12 31-60 206-89 206h-415l152-420zm-2274 0l-881-1c-128 0-204 122-238 223-25 80-110 262-110 349v46c0 98 98 119 197 119h434c7 28 13 11 13 32 0 46-43 125-92 125h-697l-100 289 948 1c116 0 176-133 212-222 19-47 110-285 110-324v-26c0-186-186-158-368-158-80 0-188 5-257-6-55-10 31-139 60-158h665l104-289zm1084 289c24 0 57-116 65-139 16-48 43-103 54-151h-1092c-27 0-100 252-118 290h368l-323 893 356 1c7-31 70-178 88-222 28-70 54-150 79-223 29-84 154-381 155-449h368zm594-289l-351-1c-25 0-104 250-119 289-35 96-69 201-109 299-40 99-68 198-109 298-38 95-68 211-110 298l365 1 433-1184zm1990 0l-362-1-430 1183 1113 1c26 0 115-248 119-290l-762-2 322-891z"/>
      <path class="fil0 str0" d="M22869 9943c101 0 183 82 183 183s-82 183-183 183-183-82-183-183 82-183 183-183z"/>
      <path class="fil0" d="M22782 10235v-215h91c23 0 40 2 51 5 10 4 19 11 25 21s9 21 9 34c0 16-5 30-14 40-10 11-24 17-43 20 10 6 17 12 24 18 6 7 14 18 24 35l27 42h-52l-32-47c-11-17-19-27-23-31-4-5-8-8-13-9-5-2-12-3-22-3h-9v90h-43zm43-124h33c20 0 33-1 39-3 5-2 9-5 12-9s4-10 4-16c0-7-2-13-5-18-4-4-10-7-17-8-3-1-14-1-32-1h-34v55z"/>
    </g>
    <path class="fil0" d="M14281 7695h244l-128 917-2 13-9 59 17-54 5-15 150-401h240l-223 525 70 603h-251l-22-433-1-25-1-78-8 57-67 479h-252l238-1647zm591 519h266l17 467v15l-1 56 12-71 75-467h204l-171 1128h-240l-25-533 1-57-10 72-80 518h-219l171-1128zm1647 1h247l-150 946c-25 160-131 216-351 207-231-10-228-163-220-231 63-354 113-661 149-922l251-1-148 925c-3 13 4 38 27 42 28 6 42-16 45-32l150-934zm348-1h401l-24 179h-150l-32 224h146l-29 189h-142l-154 950h-255l239-1542zm-1283 1126l55-221h101l-25 221h238l65-1128h-328l-347 1128h241zm102-409l127-506 19-83-13 85-2 22-55 483-76-1zm8324-8072c26-2 125-3 146 3 72 20 46 111 5 145-11 9-31 24-49 26h-149l47-174zm-709 175c7-13 119-121 144-146 9-10 234-236 237-243h-298c-29 0-29-2-43 12l-252 255c-5 5-37 35-39 37l80-304-332 1-220 822 333 1 96-362 207 361c208 3 424-2 632 1l98-363 206 362c68 3 144 1 213 1h2114c69 0 116-16 162-49 193-137 125-469-154-470h-116c-37 0-76 1-77-39-1-18 9-35 17-42 13-10 27-11 47-11h347c74 0 158-3 230 1-1 14-75 284-81 304l-61 229c-5 18-18 61-19 77 593 1 1188-3 1781 0l56-213c-171-3-350 2-520 0l-23-1 81-304c5-18 80-293 80-306-106 0-225 2-330 0l-163 610h-573l24-91 452-1 56-213h-450l24-92h450c4-6 57-201 57-213-249 3-500 0-750 0h-750c-60 0-119-5-173 16-47 17-85 47-109 77-141 175-32 424 196 426 60 0 129-4 188 0 57 3 61 92-12 91h-621l163-610h-331l-163 610h-572c0-17 18-70 23-91 135-3 296-1 432 0l20-1 55-212-449-1 22-84c3-12 13-8 27-8h422c6-3 5-3 7-11l40-149c4-14 12-40 14-53h-782c-7 13-22 78-27 98l-79 293c-18 65-35 131-52 196-6 25-48 186-53 196-6-5-138-239-151-264 11-4 24-7 36-12 32-13 59-34 82-56 113-107 104-292-12-389-90-75-174-62-309-62-27 0-354-2-371 1l-211 783-223-395z"/>
    <path class="fil0" d="M27889 639c38-11 68 14 77 42 12 38-14 70-42 78-78 24-117-96-35-120zm90 80c15-46-20-85-54-94-47-11-84 20-93 55-23 95 117 137 147 39z"/>
    <path class="fil0" d="M27890 672c11 0 23-1 32 3 6 22-12 18-32 18v-21zm30 33c11-5 15-5 19-15 14-40-46-33-66-32l1 82h16v-34c21 0 21 13 38 34h18c-3-11-18-30-26-35z"/>
    <g id="_1113812576">
      <path class="fil0" d="M16759 239l1 734 4512 1 1-744h-4504c-9 0-10 0-10 9zm2503 1121c37-3 89 0 127 0 44-1 68 14 94 34 113 86 102 285 3 359-31 23-47 32-97 32-35 0-93 3-127-1v-424zm-295-23h74v457h-74v182c101-1 203 0 304 0s186 9 271-29c135-60 224-182 225-377 0-192-88-318-225-375-87-36-175-27-274-27-100 0-201-2-301 0v169zm-1245 35c61-12 121 8 158 38 145 113 80 332-87 360-187 32-304-179-197-321 26-36 66-65 126-77zm452 249c31-245-154-441-364-466-248-31-440 150-468 363-18 135 31 244 93 321 62 78 164 135 270 148 131 17 247-30 321-94 11-10 20-16 30-26 20-21 52-62 66-89 26-47 44-95 52-157zm1981-172c10 12 52 124 58 144h-113l55-144zm-230-100l67 1-189 446h-59v180h381v-180h-74l12-25s1-1 1-2l4-6h195c6 10 15 21 17 33h-58v180l370-1v-179h-71l-263-628h-334l1 181z"/>
      <path class="fil0" d="M18157 1337h65c-1 81 0 162 0 243 0 77-9 152 21 217 113 249 460 260 583 1 29-62 21-145 21-221v-240h65v-169h-341v169l64 1v271c0 45 4 85-15 120-35 63-135 66-172-2-19-35-14-79-14-122 0-89-1-179 0-268h63v-169h-341l1 169zm-1235 611c100 70 250 35 321-34 84-83 111-210 43-312-103-154-329-114-324-217 2-32 21-52 49-58 82-17 102 77 112 96l177-1c3-27 4-236-1-253h-166l-2 26c-20-19-34-29-68-37-138-33-293 36-313 205-26 228 179 251 312 322 82 44 52 105 1 119-72 19-101-34-113-93h-190l1 253h155c4-7 0-3 2-8l3-6c0-1 0-2 1-2zm3711-611l74 1-1 458h-72v180l638-1v-307h-213l-2 105h-125v-436h72l1-169h-372zM16759 239c0-9 1-9 10-9h4504l-1 744-4512-1-1-734zm-9 745h4532V220h-4533l1 764z"/>
    </g>
    <path class="fil0" d="M19234 6084l5-33 216-1765-245-1-221 1800c26 3 235 4 245-1zm1033-1152l-316 3-15 120h164l-23 202c-36 15-129 13-167 5-52-11-89-34-117-65-134-147-29-576 391-471 27 6 48 17 71 24 6-11 27-116 26-132-107-23-181-42-302-27-100 13-178 45-241 95-55 44-107 110-137 199-29 86-43 203-15 293 54 170 238 235 458 208 55-7 107-18 159-30 20-5 13-6 19-44 3-25 6-51 9-77 7-52 36-268 36-303zm1056 148c-10 89-48 176-123 192-108 24-146-74-138-172 19-236 288-272 261-20zm-241-197l8-79h-144l-99 808h151l37-297c14 5 37 63 125 75 64 8 124-6 170-31 81-45 129-136 148-257 21-131-10-246-101-291-84-40-205-22-270 45-9 9-16 19-25 27zm-820 617l-23 111c114 21 193 32 280-68 49-57 93-166 133-240l125-249c20-42 41-79 62-123 9-21 59-112 61-127h-151c-34 67-63 141-95 207-16 35-31 69-47 104l-51 105c-20-73-46-221-65-310l-24-105-164-1c1 19 113 471 126 521 8 32 25 74 15 106-29 95-116 81-182 69zm1913-589c108-26 171 59 158 165-29 238-209 222-260 162-59-69-49-290 102-327zm7-118c-169 22-280 137-300 305-23 196 115 312 308 292 167-18 284-140 300-307 17-190-116-315-308-290zm-3329-47c23 25 99 60 173 180l40 76 89-717h-245l-57 461zm4098 504c-51 10-122 47-192 7-112-65-71-348 114-350 20 0 35 1 54 5 18 4 31 11 46 14 7-10 27-99 29-117-126-30-241-27-330 41-71 53-128 145-133 275-9 232 157 286 341 261 75-10 64-13 65-38 2-32 6-66 6-98z"/>
    <path class="fil0" d="M19234 6084h3857l-1-34-3851 1zm-300 2c5-48 79-613 76-637-43 69-119 130-186 173-70 44-82 26-87 65l-22 185c-5 41-26 189-26 214h245zm2754-1155l14-127c-26-1-116-4-133 2-3 6-72 543-70 573h149c19-99 18-211 43-307 17-68 50-131 121-137 38-4 53 7 80 9l18-149c-64-10-101-1-145 32-33 25-58 58-77 104zm-3121-299c45 10 84 19 125 34 19 7 106 47 110 47l52-427-245-1-42 347zm115 1057c-43 8-68 22-143 33-26 4-51 7-78 8-19 1-28-5-31 12-2 11-3 26-4 39-6 45-38 280-37 305 37 0 227 6 244-2l49-395zm-375-410c15-2 22-4 37 0 21 5 195-2 230-4 4-10 4-12 2-25-14-4-8 1-21 5-28-17-3-17-51-18l-207-5 232-5c0-7-1-10-3-17l-8-19-163-8 159-3c3-11-3-28-9-39l-114-2c12-7 158-7 170-7l6-18c8 5 8 9 12 17l278-6v-23c-102-3-216-3-314-7-8-1-17-1-25-1-20 0-9 1-22 6-18 7-26-6-43-8l-9 14c-33-6 1-13-64-16l29-3c-1-8-2-27-4-31-11-1-27-3-38 2-24 9 1 12-33 7-4 14-2 11-10 23-10 12-5 12-10 27-6 17-18 25-24 48-10 38-5 93 17 116z"/>
    <path class="fil0" d="M18448 4904c-3 25-11 24-35 25l-5-12c-6-13-1-8-10-11-3 9-1 16-4 24-3 10-10 8-18 13-9 6-5 7-16 16-6 5-11 7-18 13 4 10 14 16 15 27-9 13-15 6-33 7-2 12-2 38-2 51 9 0 28 11 37-8 5-11-1-7 7-19 7-9 8-2 10-19 25-1 9-5 25-7 21 43 17 11 24 41l1 7s1 1 1 2c7-10 1-3 3-11 5-12 2 0 6-13-6-3-9-7-14-13-1-1-5-8-5-9-2-4-2-3-3-6-1-1-1-2-2-2l-37-8c5 4 80 0 98 0 19-1 14-2 28-6 19-6 24 12 58 0 18-6 8 0 25 2 8 1 25 0 34 0 90-2 177-6 267-7-1-14-13-22-30-22-20-1-40-1-60-2l-348-9c17-8 396-14 452-15-3-21-24-21-36-21-92-1-206-7-302-9l-92-3c-22 1-5 6-21 4zm3563 981c-11 60-137 64-142-32-3-61 54-103 104-81 9 3 14 7 19 12 19 20 0 16 61 16-14-50-82-93-149-66-134 54-78 260 65 235 50-9 101-61 95-124l-145 1v38l92 1zm852-77c8 5 85 138 100 158h39l-1-236h-40l-2 151-97-151-40 1v235h41v-158zm-1462 2c5 4 3 2 8 9 23 34 77 130 92 147h39l-1-236h-41v149c-4-4-88-130-96-149l-42 1v235l41-1v-155zm885 51c-18 103-179 81-160-28 19-105 179-76 160 28zm40 12c15-74-36-134-95-145-76-14-135 36-147 94-15 75 38 135 97 147 75 14 133-37 145-96zm66 50l-1-64c33-3 69-5 71 31 2 38-39 35-70 33zm-1-104v-50c25-1 59-4 60 24 1 31-35 27-60 26zm81 17c34-34 21-74-3-92-28-20-81-14-119-14v236c54 1 108 8 138-24 14-15 21-38 16-63-6-33-20-27-32-43zm-4128-557c-15-4-22-2-37 0 5 10 12 22 23 23 17 3 25-8 35-10 11-2 27 5 32 12 6 7-1 21 1 35 3 21 27 34 19 68-3 13-11 17-7 32 3 11 6 25 11 33l80-5c2-37 16-16 20-38l-86-3 92-5-3-42-58-2c13-6 37-3 54-5 3-23 8-21 14-39l-108-4 115-4c8-6 25-28 25-38l-196-5h-14l-12-3zm2805 516c9 10 25 57 29 71l-55 1 26-72zm-67 171c12-16 13-51 29-60l82 1 23 59 41-1c-1-11-87-228-92-235-33 0-29-5-41 27l-61 151c-6 17-18 42-22 58h41zm1531-172c7 15 23 57 26 73l-57-1 31-72zm-69 172c11-17 14-41 24-60l87 1 22 59h41c-2-18-35-95-44-119-15-39-30-79-46-117h-32l-92 236h40zm-1653-68c5 99 162 97 154-11-4-49-43-53-83-71-62-28 27-84 36-22h42c-4-44-39-77-88-66-37 8-70 51-46 96 19 37 78 32 94 60 18 33-26 59-56 36-26-21 12-22-53-22zm-2746-519c9 12 40 7 55 8 16 1 10 5 7 1 0 26 2 29 9 31 5-15-2-21-3-34 0-15 12-16 15-29 12-49-59-17-88-80-10-24-39-9-49-37-17-1-13 0-28-4-43-11-19 22-48 12-17-5-3-11-23-9 5 22 25 22 31 26 10 7 0 1 8 12l40 9c-16 0-32 1-48 2-6 8-9 19-10 33 20 1 182 9 184 9l-182 6c-2 13 7 24 13 32l149 7c-3 2 1 1-7 3 0 0-6 1-7 1-6 1-12 1-18 1zm-84-371c-5-12 3-4-8-10-8 8-8 15-13 24 0-11 3-13 6-23-18-1-121 3-128 8-6 5-6 17-5 25l146 9-146 10-1 30 115 7c-9 6-93 9-113 10-1 7-1 9 0 16 1 4 1 3 2 7 6 14 36 12 63 12 7-19 3-12 14-25 15 1 8 5 18 1 0-1 16-20 20 3 3 20-6 20 9 26 4-19-4-37 9-53 5-6 13-10 18-15 8-9 1-16 3-30 23-16 36-15 45-45-11 0-23 0-33 2-22 3-19 6-21 11zm3499 761h64v197l40-1 2-196 59-1-1-38h-164zm-3081-882l-19 4c5 6-1 3 10 6l386-12c-40-25 1-20-84-23l-237-8c-15 0-17 2-26 3-2 0-28-6-52-6-6 10-16 15-9 28 7 14 20-3 31 8z"/>
    <path class="fil0" d="M18511 5085l340-6-7-26c-42-3-96-2-140-3l-103-3c-26 0-12 2-23 14-16-3-6-5-17-14l-91-2c10 42 47-3 41 40zm-198-333c12 0 41 0 50 6-57 2-90-3-137 15-18 7-29 9-33 19 12 7 18-3 34 0 15 2 7 8 32 9 26 1 53 2 80 3l-92 5c-6 8-4 11-12 19s-10 6-12 21l-1 3c-4 23 6 33 27 32 17-39 30-52 77-62 26-6 28-11 36-35 12-33 29-23 35-35-18-10-67-10-84 0zm4427 1214h42l-1-236-42 1zm-4155-940c-3 16-2-1-9 11l308-7 7-22c-25-4-303-11-324-8 2 15 11 15 18 26zm-445 441c14-3 26 1 42 2v-13c4-15-3-6 7-10 17-7 21-7 27-27-7-2-9-5-9-31 3 4 9 0-7-1-15-1-46 4-55-8-25 1-77-3-95 6 4 9 12 11 21 16 15 8 8 7 17 18l91 4c-21 9-67 4-93 8l5 36c15 1 36 4 49 0zm3138 499l42-1-1-235h-41zm-3349-1008l-7 24 109 5c18-2 7-10 25-11l8 13 69 5 3-16c3-15 15-18 23-26 6-5 2-1 7-7l-84 6c-19-2-129 6-153 7zm673 191c34 5 37 1 49 29 25-1 72 3 90-9 11 3 0 2 12 5 5 1 11 1 16 1 42-1 76 5 82-26l-193-5h-29c-2 0-12-1-14-1-5 1-7 1-13 6zm-80-302c32 1 243-3 257-9-49-43-234-21-257 9z"/>
    <path class="fil0" d="M18140 5467l13 5c4 0 10 0 14 1l-73 4c-1 16 6 26 11 39l36 4-30 3c3 15 35 47 50 32 10-10-22-35 4-56 11-9 16-4 20-19 3-10 1-23 4-34-10 4-3-5-7 10v13c-16-1-28-5-42-2zm247-567c13 1 10-1 22-4 1 9 2 16 9 22 11-5 7-2 11-13l3-8c5-8 2 2 6-8-5-11-10-11-3-23l12-20c11 0 22 5 36 2 16-4-3-4 14-3l14-1c1 0 2 0 2-1-7-18-63-42-84-17-11 13-9 24-26 33-15 10-23 16-16 41zm-460 34l144 7c15 1 12 3 18-6-9-15-15 1-26-19l-5-10c-1 0-1-1-2-2-24 1-51 2-75 4-29 2-46-1-54 26zm97-96c15 6 68 5 89 6 35 2 17-15 36-11 17 4 1 19 35 12 6-16 4-18-3-32-23-3-136-4-157 25zm423 202c15 0 8-1 20-10 9 5 4 3 6 9l94-2c1-12-10-26-16-38l-53-1c11 6 44 7 32 28-6 5-19-3-24-4-14-3-19 4-26 1-4-13-1-14 2-26l-63-2c7 21 4 10 17 22 12 11 1 10 11 23zm-329-145h5c9 4 3 1 9 5l-18 1c1 34-14 11-19 40 20 1 71 9 84 0 7-15-15-16-12-52-18 5 4 5-17 10-4-8 0-7-1-18-16-4-28 1-31 14zm-150-9c24 4 62 5 88 6 21 1 24-6 34-14 11-9 20-12 29-20-23-2-61 2-85 3-37 3-48 2-66 25zm451 585c1 25 4 71 38 55 15-6 38-27 38-49 0-2-1-2-1-3l-75-3zm3293 414h72l11-1v-20l-1-18-10-1h-72zm-3184-705c19 0 69 3 81-4 0 0 5 3 1-9s-19-6-33-18c-11-9-5-6-24-7h-36l11 38zm332 256h-88c-9 8-11 9-13 25l98-3 3-22zm-317-210c19 1 30 3 41-6 6-6 18-18 20-28l-71-2 10 36zm207-4h67l-9-26-58-2zm-824-78c-3 12 5 24 12 34l37 1-1-38-48 3zm741 81l34-1c5-5 6-8 11-13 7-6 9-6 12-17l-65-2 8 33zm-716-31c9 10 14 7 30 7-1 14-7 3-10 19 12 7 14 9 28 8 8-19 4-9 13-23l-16-15c-13 0-35-1-45 4zm847 219c15 1 31 0 46 0 27-1 15-24 14-26-10 5-6 9-14 18-3-6-4-10-4-19-22-1-40 9-42 27zm-464-505c6 12 2 8 12 15l-12 32c10-3 17-5 29-7 6-20 2-10-10-34-7-14 6-6-9-22l-10 16zm421 411l14 1c11-22 3-5 15-15l-2-12c-9-3-24-3-35-2l8 28zm-198 111c-18-1-19-3-25 12-3 8-5 15-4 25h17l12-37zm145-189h-31c0 5 1 17 2 22 4 19 28 3 29-22zm-571-369c16 9 47 8 44-16-11-1-19-1-27 2-18 6-16 9-17 14zm665 447l31-1 1-26c-13 0-9 2-20 9-9 5-12 6-12 18zm38 164h-36l7 23c13 1 27-10 29-23zm-73-212h14l-1-28-19-1c0 13 0 20 6 29z"/>
    <path class="fil0" d="M18159 4971l25 2s1-1 2-1c4-15-6-9-11-20l-3-7c-8 10-12 10-13 26z"/>
    <g id="_1113721472">
      <path class="fil0" d="M5615 6253c-15 21-31 40-46 60l-272 362c8 10 14 19 22 29l205 268c16 20 31 40 46 60 16 20 30 39 46 59l45 58c7-5 81-109 88-119l258-357-303-422c-7-10-36-52-43-58l-46 60zm2950 453c-1-29 2-59 11-84 8-22 23-47 37-59 18-18 26-28 54-42 69-36 171-22 221 26 37 36 60 70 64 128 12 157-139 236-263 195-69-23-119-84-124-164zm159-386c-96 10-193 57-251 125-14 16-28 32-41 53-95 154-61 359 77 473 70 56 162 99 284 89 53-4 105-20 146-42 61-33 110-78 147-135 11-18 22-41 30-63 19-48 26-107 21-163-7-88-44-166-103-225-38-37-86-71-143-91-50-18-110-26-167-21zm-732 351v-183c83 0 147-1 149 91 2 88-69 92-149 92zm-175-320v688h175v-271c9 9 15 21 23 33l66 103c15 23 30 45 44 68 8 12 15 22 23 34 4 6 6 10 10 17 7 10 9 16 18 16 41 0 166 2 202-1l-50-70c-16-21-148-198-154-209 23-13 151-20 151-203 0-110-65-183-156-205-62-14-275-9-352-9v9zm-377 225l63 202h-143l80-202zm-363 463h189l44-125 246 4c6 9 19 48 25 61l18 46c1 2 2 6 2 7 5 9 0 4 6 7h185l-255-697h-197c-8 6-29 71-35 86-11 29-21 57-32 86-43 114-87 236-131 349l-65 176zm-278-513c0-17-3-34 5-34 42 0 100-2 133 21 20 14 27 51 21 83s-25 46-56 53c-19 5-83 10-103 5v-128zm-181 513h181v-230c80-9 194 24 281-54 69-61 81-174 56-260-23-82-88-138-185-149-68-7-254-4-333-4v697zm3099-26v-208c-18 12-35 44-89 68-42 18-87 21-133 6-164-53-159-328 3-379 66-20 128-3 179 38l40 37v-208c-66-27-111-47-191-44-194 6-342 149-342 368 0 216 152 365 342 366 67 1 142-16 191-44z"/>
      <path class="fil0" d="M5780 6192c5 11 252 337 269 359l89 118-45 61c-72 96-154 203-224 300-14 20-30 40-45 60-8 10-15 20-22 30-7 9-18 22-22 30h120c5-1 8-8 13-14 4-6 7-9 11-15 78-109 163-222 243-331 15-20 29-41 45-61 6-8 41-55 43-61l-310-418c-4-5-40-57-45-58h-120z"/>
      <path class="fil0" d="M6021 6192c2 6 86 112 93 121l93 119c5 6 180 228 185 239-9 9-16 20-24 30l-69 90c-61 76-125 161-186 239-7 9-89 113-92 120h115c6-1 22-25 26-30l298-390c6-9 42-54 45-61-29-41-62-79-92-120-15-21-30-40-46-60l-206-268c-6-8-17-25-25-29h-115z"/>
    </g>
    <g id="_1119345424">
      <path class="fil0" d="M23670 12675c-7-9-8-5-9-22-1-9 4-23 8-31l271-631c17-24 65-74 102-29 24 31 7 108 12 155 74 38 105 5 124-55 7-22 50-153 50-167-2-39-47-31-74-23-33 9-41 30-79 16-259-96-520 175-620 416-41 99-83 235-28 349 63 129 315 128 464 11 12-9 114-106 56-128-19-8-77-1-94 7-47 21-85 178-183 132zm575-568c-15 53 0 27 22 59l-133 338c-34 84-58 23-79 85l12 6c35 9 203 4 242 4 97 0 34-31 42-65l70-181 95-1c-7 22-64 176-79 192-30 32-37-2-47 53l266 2c21 0 41 4 47-19 8-29-9-12-28-39-3-13 80-209 91-237 15-39 29-76 45-114 31-75 74-13 80-85h-307c-16 59 3 24 6 55 2 17-53 144-60 157l-88-1c1-15 45-145 69-163 30-21 36-1 35-49l-301 3zm1332 53c-3 25-138 376-156 390-27 21-38 1-44 39 21 16 151 17 182-5-5-36-10-20-33-43l96-245c22 47 17 126 29 182l25 10c61 10 70-35 117-79 39-38 69-77 110-116l-98 246c-30 34-54-8-63 58l253 2c50 1 46 8 69-22-9-27-7-18-34-29l148-379c21-29 36-10 59-32 53-48-106-33-166-33-78 0-65-12-136 72-19 23-84 95-108 111l-21-183h-207c-24 0-38-2-46 18-14 32 1 20 24 38zm1879 402c-11-34 107-302 135-373 32-80 92-58 102-49 19 20-72 217-84 247-43 110-61 214-153 175zm154-461c-166 27-283 116-335 243-85 204 74 285 270 256 400-60 512-571 65-499zm-1136 293c7-37 86-235 103-255 112-1 76 37 22 174-25 65-42 83-125 81zm-143-232c-6 41-106 275-134 346-34 88-74 12-75 86 28 7 292 8 309 2 15-4 26-13 18-30-4-8-23-18-31-25 2-23 28-92 41-109 106-4 203 1 301-48 107-53 278-280-155-280l-289 3c-12 5-20 13-14 29 5 17 12 10 29 26z"/>
      <path class="fil0" d="M28067 12159c0 35-67 194-85 234-16 38-31 77-45 114-34 89-72 17-77 90l167 2c20 0 39-6 34-29-7-25-10-5-36-29 5-31 71-196 85-213l126 269 103 1 157-386c46-123 67-26 82-101-26-13-177-9-198 0-4 50 7 21 35 48-2 30-54 159-69 179l-109-234c-31-2-183-13-195 17-13 30 3 21 25 38zm-2980 298h-132c21-37 52-76 78-115 25-39 52-75 78-111l-24 226zm-22-291c-47 73-102 148-155 220-28 38-51 71-78 109-79 108-81 39-93 102 296 18 170-39 160-56 9-18 19-29 28-48h151c3 96-46 38-63 96 19 14 47 10 71 10h76c45 0 118 12 153-10 27-48-18-13-17-82l33-318c4-35 20-77-16-85l-236-1c-20 2-32 6-34 23-5 33 2 12 5 19 11 20 4-13 15 21zm1907-34c14 24 13 7 36 27-2 31-110 298-135 359-31 73-64 2-88 79l278 2c50 1 57 9 67-30-16-21-13-7-36-25l137-355c35-81 79-7 83-85h-272c-45-1-59-9-70 28zm317 880c-106 56-155-99-45-89 16 19 38 61 45 89zm14-124c49-14 78-36 72-99-93-68-237 24-173 99-19 10-110 32-97 116 17 114 195 35 216 41 30 10 34 25 81 23 56-2 118-38 109-95-54-15-42 18-66 41-24 24-50 5-67-12 55-40 155-157 95-194-23-14-45 1-52 22-9 27 9 31 8 57-1 27-48 75-68 82-46-81-3-21-58-81zm-809-28c-9 62 28 46 1 105-12 25-34 55-71 51-40-4-14-51-4-78 10-28 19-64 31-92l-69-1c-10 36-22 71-34 105-15 43-12 71-67 68-7-46 40-121 47-173-25 1-60 8-85 13-17 4-25-1-30 20-9 39 1 2 17 24 8 10 8-20 6 18l-19 52c-59 146 98 74 118 74 19 0 54 39 120 4 112-57 164-263 39-190zm-689 41c9-36 37-128 89-79 22 20 2 52-13 64-20 16-45 15-76 15zm171-99c-23-40-175-35-218-31-28 3-21 5-32 26 14 19 7 6 26 21-2 37-31 103-43 138-45 127-44 18-74 105l150-2c14-59 13-12-18-47 5-24 13-51 26-68 53-2 103 0 142-25 30-19 65-66 41-117zm1811 37c16-35 7-29 37-54 31 12 58 50 84-8-19-50-142-51-190 66-50 9-37-10-50 38 13 7 6 1 18 6 16 7 3-2 14 8-106 327-114 177-178 194-28 8-55 62 26 62 85 0 144-61 171-121 61-137 25-130 71-144 39-12 11 5 35-32-13-10-24-5-38-15z"/>
      <path class="fil0" d="M26114 12885c19 65-52 173-95 130-19-19 15-149 95-130zm69 72c61-147-179-157-234-11-58 155 172 162 234 11zm1756-69c83-35 30 111-17 131-64 29-49-53-19-102 18-29 9-17 36-29zm110 62c48-150-195-142-240 5-28 92 34 121 119 105 61-11 103-56 121-110zm-1249-38c32-80-104-98-195-17-65 58-70 181 62 167 28-3 104-30 101-57-5-41-61 28-107 20-19-3-39-27-24-49 12-19 139-4 163-64zm1789 106c-40-100 102-14 153-102 53-90-102-76-148-51-42 24-128 110-67 175 59 64 163-8 195-27l-17-26c-28 17-68 51-116 31zm-242-7c-7-50 14-87 38-111 8-8 32-29 48-21 17 10 6 23 10 50 56 10 71-3 69-56-162-138-366 206-146 190 30-2 56-13 77-23 34-16 38-17 24-49-44 14-71 48-120 20zm-1411-139c-6-10 1-13-5-26-10 0-75 11-83 14s-25-1-18 25c1 1 2 3 2 4 1 1 3 3 3 4 30 52-20 74-37 169l63-2c14-22 24-63 35-89 54-130 60-48 114-66 60-18 12-110-74-33z"/>
      <path class="fil0" d="M28201 12896c28-1 92 34 96-23 3-53-74-24-92-8l-16-14c-17-8-103 2-102 32 1 25 4-4 22 26l-51 152 66 1c21-65 38-127 77-166z"/>
    </g>
    <g id="_1119343600">
      <path class="fil0" d="M25190 7409h420v-617c8 6 149 212 163 232l216 311c8 12 47 74 58 74h392V6251h-417v634c-6-4-22-28-28-37l-136-197c-19-28-36-53-55-81-9-13-18-25-27-38l-137-200c-11-16-50-67-54-81h-395v1158zm-1509-388c0 150 97 286 229 350 144 71 264 66 420 66 172 0 352-43 455-138 35-33 42-36 73-83 28-42 65-120 65-188v-777h-427v652c0 104-53 215-156 215-77 0-132 7-185-65-23-32-41-86-41-140v-662h-433v770zm3649-434c0 109 20 163 96 237 23 21 61 44 92 57 10 4 16 8 24 11 118 45 223 46 345 68 58 11 203 42 203 99 0 42-1 67-51 91-67 33-296 42-296-102v-27h-427c0 226 134 358 345 404 38 8 66 11 108 17 79 12 273 0 356-12 66-9 144-30 194-56 28-14 90-51 112-75 76-84 89-152 89-271 0-49-15-86-31-118-22-44-34-54-65-85-26-25-54-44-88-61-83-41-139-54-234-68-47-6-92-11-135-18-36-6-224-36-224-77 0-43 6-70 52-94 62-32 255-40 269 75 2 23-9 19 15 19h392c0-81-7-132-54-199-62-90-160-133-265-158-131-32-319-26-450 0-126 25-268 90-330 204-23 42-42 86-42 139zm-2997-517h576c53 0 50-1 111-31 88-44 208-95 295-139l195-92c101-51 242-110 342-161l247-115c3 0 87 41 97 46l99 46c18 9 29 14 48 22 18 8 30 16 49 24l146 68c93 46 205 94 295 139l96 46c19 9 31 14 50 23 17 9 33 15 49 24 17 8 33 14 50 23 18 8 30 14 47 22l99 47c22 11 34 8 65 8h575c-10-14-189-91-217-105l-332-157c-39-18-73-33-111-52l-165-78c-19-9-37-17-57-26-19-10-36-17-54-26l-386-183c-19-9-37-16-55-25l-249-118c-10-5-19-8-29-13-15-7-105-51-110-51-15 0-376 178-441 206-37 17-75 34-111 52l-1106 521c-16 7-101 46-108 55zm2369 1339h437V6251h-437z"/>
      <path class="fil0" d="M25401 6070l1391-7c-18-4-28-10-43-18l-302-143c-15-7-29-12-43-19s-28-15-42-21l-88-40c-18-10-168-81-175-81-13 0-32 13-44 18-18 8-28 12-45 21-15 8-29 12-43 20l-481 226c-22 11-76 33-85 44z"/>
    </g>
    <path class="fil1" d="M12172 1501V164h726v207h-485v1130z"/>
    <path id="1" class="fil1" d="M13447 1481h-212c-19-60-31-126-35-200-59 148-171 221-335 221-98 0-177-29-237-87s-90-130-90-218c0-227 200-341 599-341 15 0 37 1 63 1v-74c0-103-70-154-209-154-136 0-213 51-231 154l-190-29c10-82 52-150 127-203 74-53 182-80 323-80 77 0 139 7 187 20 48 12 89 34 123 64 33 31 56 63 69 99s19 96 19 181v446c0 65 10 132 29 200zm-247-503c-288 0-433 69-433 206 0 42 15 77 44 106s73 44 132 44c85 0 149-27 192-81 44-54 65-115 65-184v-91z"/>
    <path id="2" class="fil1" d="M13401 1481l316-989h264l307 989h-233l-223-816-250 816z"/>
    <path id="3" class="fil1" d="M14842 1146l202 27c-26 90-77 164-153 222s-171 87-285 87c-137 0-247-46-331-138s-125-217-125-375c0-149 42-273 126-371s199-147 343-147c141 0 250 49 327 145 77 97 116 221 116 372l-1 26h-679c0 67 6 121 19 162 12 40 38 75 76 105s85 46 142 46c110 0 185-54 223-161zm-14-296c0-71-22-129-64-174s-94-68-156-68c-61 0-113 21-154 63s-65 102-72 179h446z"/>
    <path id="4" class="fil1" d="M15043 1481V492h224v381h387V492h223v989h-223v-435h-387v435z"/>
    <path class="fil1" d="M12306 1775c-16 35-39 52-70 52-19 0-35-6-47-19s-18-31-18-55c0-26 7-50 22-69 15-20 34-30 57-30 17 0 31 5 43 15 11 10 18 25 21 43l-31 6c-4-22-15-33-32-33-13 0-23 8-31 22-8 15-12 31-12 50 0 14 3 25 9 31s13 9 22 9c16 0 28-11 37-33l30 11z"/>
    <path id="1" class="fil1" d="M12399 1828c-12 0-24-3-35-8-11-6-20-14-26-26-6-11-9-25-9-42 0-26 8-48 23-68 16-19 36-28 61-28 20 0 36 7 49 20 12 14 18 33 18 56 0 24-7 46-22 66-14 20-34 30-59 30zm1-30c14 0 25-7 32-22 7-16 10-31 10-48 0-28-11-43-33-43-15 0-26 8-33 25-7 16-10 32-10 48 0 14 3 24 10 31 6 6 14 9 24 9z"/>
    <path id="2" class="fil1" d="M12500 1824l27-165h78c12 0 22 1 28 4 7 2 13 6 17 12 4 5 6 12 6 21 0 21-13 35-39 41 21 6 32 19 32 37 0 14-5 26-15 36-10 9-24 14-42 14h-92zm52-97h42c9 0 16-2 20-7s6-10 6-17c0-11-8-17-23-17h-38l-7 41zm-11 68h42c20 0 30-9 30-26 0-14-9-20-27-20h-37l-8 46z"/>
    <path id="3" class="fil1" d="M12701 1881h-36l37-222h32l-5 34c13-26 30-39 51-39 15 0 28 6 37 19 10 12 15 29 15 50 0 27-7 51-20 73s-30 32-51 32c-22 0-38-11-46-33l-14 86zm54-82c12 0 22-8 29-24s10-32 10-49c0-28-9-43-26-43-13 0-24 8-33 24-8 15-13 32-13 51 0 13 3 24 10 31 6 6 14 10 23 10z"/>
    <path id="4" class="fil1" d="M12995 1777c-15 34-39 51-72 51-21 0-38-7-51-20-12-13-18-31-18-53 0-28 8-52 23-71 16-19 36-29 60-29 22 0 39 7 50 21s17 33 17 57v13h-113c-1 4-2 9-2 12 0 12 3 22 9 30s15 11 26 11c17 0 30-10 39-30l32 8zm-25-55c0-27-11-41-33-41s-36 14-43 41h76z"/>
    <path id="5" class="fil1" d="M13024 1824l27-165h55l19 137 67-137h51l-27 165h-34l23-136h-2l-67 136h-37l-21-136h-2l-23 136z"/>
    <path id="6" class="fil1" d="M13404 1777c-15 34-39 51-72 51-21 0-38-7-51-20-12-13-18-31-18-53 0-28 7-52 23-71s36-29 60-29c22 0 39 7 50 21s17 33 17 57c0 4 0 8-1 13h-113c0 4-1 9-1 12 0 12 3 22 9 30s15 11 26 11c17 0 30-10 39-30l32 8zm-25-55c0-27-11-41-33-41s-36 14-43 41h76z"/>
    <path id="7" class="fil1" d="M13433 1824l27-165h36l-10 63h64l10-63h36l-27 165h-36l12-73h-64l-12 73z"/>
    <path id="8" class="fil1" d="M13613 1824l28-165h36l-11 63h64l11-63h36l-28 165h-36l12-73h-64l-12 73z"/>
    <path id="9" class="fil1" d="M13949 1824l28-165h36l-27 165h-37zm-154 0l28-165h36l-10 61h36c35 0 53 15 53 45 0 17-6 31-17 42s-28 17-51 17h-75zm41-29h36c20 0 30-10 30-28 0-14-9-21-26-21h-32l-8 49z"/>
    <path id="10" class="fil1" d="M14175 1777c-15 34-39 51-71 51-22 0-39-7-51-20-13-13-19-31-19-53 0-28 8-52 24-71 15-19 35-29 60-29 22 0 38 7 50 21 11 14 16 33 16 57v13h-113c-1 4-1 9-1 12 0 12 3 22 9 30s14 11 25 11c17 0 30-10 39-30l32 8zm-25-55c0-27-11-41-32-41-22 0-37 14-43 41h75z"/>
    <path id="11" class="fil1" d="M14286 1824l28-165h36l-12 71 77-71h38l-62 58 40 107h-41l-29-81-29 26-10 55z"/>
    <path id="12" class="fil1" d="M14521 1828c-12 0-24-3-35-8-12-6-20-14-26-26-6-11-9-25-9-42 0-26 7-48 23-68 15-19 35-28 60-28 21 0 37 7 49 20 13 14 19 33 19 56 0 24-7 46-22 66s-34 30-59 30zm0-30c15 0 26-7 33-22 7-16 10-31 10-48 0-28-11-43-33-43-15 0-26 8-33 25-7 16-10 32-10 48 0 14 3 24 10 31 6 6 14 9 23 9z"/>
    <path id="13" class="fil1" d="M14621 1824l28-165h55l19 137 67-137h51l-27 165h-34l23-136h-3l-67 136h-37l-20-136h-3l-23 136z"/>
    <path id="14" class="fil1" d="M14858 1824l27-165h129l-27 165h-37l24-138h-57l-23 138z"/>
    <path id="15" class="fil1" d="M15104 1828c-12 0-24-3-35-8-11-6-20-14-26-26-6-11-9-25-9-42 0-26 8-48 23-68 15-19 36-28 61-28 20 0 36 7 49 20 12 14 18 33 18 56 0 24-7 46-22 66-14 20-34 30-59 30zm1-30c14 0 25-7 32-22 7-16 10-31 10-48 0-28-11-43-33-43-15 0-26 8-33 25-7 16-10 32-10 48 0 14 3 24 10 31 6 6 14 9 24 9z"/>
    <path id="16" class="fil1" d="M15251 1752l5-26c17 0 29-2 34-7s8-11 8-18c0-13-8-19-23-19-17 0-28 8-33 25l-32-6c10-31 33-46 68-46 20 0 34 3 44 11 9 7 14 17 14 29 0 20-12 33-35 41 21 5 31 17 31 35 0 15-6 28-17 40-12 11-30 17-53 17-39 0-60-17-65-50l33-6c3 20 13 29 31 29 10 0 19-2 24-8 6-6 9-13 9-21 0-5-1-9-5-13-3-3-7-5-12-6s-14-1-26-1z"/>
    <path id="17" class="fil1" d="M15396 1810l-2 14h-36l27-165h36l-11 69c-2 8-4 20-7 36 8-10 17-21 29-33l50-53 4-19h36l-28 165h-36l11-66c2-14 5-26 7-37-7 9-16 20-27 32l-53 57z"/>
    <path id="18" class="fil1" d="M15560 1824l22-136h-45l5-29h125l-4 29h-45l-22 136z"/>
    <path id="19" class="fil1" d="M15816 1824l28-165h36l-27 165h-37zm-154 0l27-165h37l-10 61h36c35 0 52 15 52 45 0 17-5 31-16 42s-28 17-51 17h-75zm41-29h36c20 0 30-10 30-28 0-14-9-21-26-21h-32l-8 49z"/>
    <path class="fil0" d="M10751 164h216v225h-216zm0 372h216v225h-216zm0 372h216v225h-216zm0 372h216v225h-216z" id="_1119341232"/>
    <path class="fil0" d="M11114 164h216v225h-216zm0 372h216v225h-216zm0 372h216v225h-216zm0 372h216v225h-216z" id="_1119290896"/>
    <path class="fil0" d="M11478 164h216v225h-216zm0 372h216v225h-216zm0 372h216v225h-216zm0 372h216v225h-216z" id="_1119289776"/>
    <path class="fil0" d="M11841 164h216v225h-216zm0 372h216v225h-216zm0 372h216v225h-216zm0 372h216v225h-216z" id="_1119288656"/>
    <path class="fil0" d="M26357 2887h-34c-10 4-11 2-20 9-7 5-10 8-19 10-19 4-87-4-110-6-39-4-29 67-14 77 28 19 108 29 141 34-1 13-14 13-27 13-43 2-94-12-105-10-8 13-5 29 6 37 24 15 75 34 103 44 52 19 92 36 138 59 180 91 424 292 566 447 5 5 9 8 13 12 14 16 19 18 15 30-3 10-5 7-14 11-29 12-16 36-12 47h150c9-19 17-27 22-55 12-77-44-160-45-183 22-16 109 1 136 7 71 19 147 61 202 105 16 12 76 58 78 74-12 8-49 11-32 52h157c12-5 25-32 30-49 26-76 0-107-39-175-18-32-40-67-55-102-9-21-10-45-5-69 3-11 7-20 9-31 3-11 3-22 5-33 7 1 10 14 20 19 37 7 46-134-94-208-19-10-38-19-61-26-23-8-37-17-60-26-137-52-337-32-482-35-59-1-173-15-236-24-24-4-51-11-74-14l12 43c-32-4-24-26-42-55-13-19-37-33-67-17-27 14 4 18-73 2l-83-14zm1593 1379c-19 2-46 0-65 0-26 0-106 4-125-5-14-7-25-22-18-44 11-35 57-32 97-32 39 0 91-3 128 1l-17 80zm-345-277c76 3 156 1 233 1h115c20-1 37 0 44 13 8 14 2 37-2 50h-188c-60 0-118-4-171 15-101 37-148 148-124 238 34 125 166 104 268 104 31 0 349 2 371 0 20-86 37-172 55-258 18-83 51-184-4-252-54-68-151-54-256-54-103 0-207-1-311 0l-30 143zm-1220-5c43-1 88 0 131 0 22 0 39 1 50 15 11 13 12 35 7 54-11 38-37 47-83 47h-129l24-116zm288 218c71-24 115-67 133-147 21-93-12-164-78-193-40-17-77-16-124-16-46 0-392-2-420 0-37 160-70 331-105 493-4 18-14 55-14 71h230l36-172 107 1 74 171h273c-2-9-74-136-84-155-8-15-23-38-28-53zm-1348 32v48c4 8 5 27 9 38 32 85 135 102 221 107 150 10 346 2 424-133 26-45 34-85 46-141 5-23 63-291 64-307-28 0-219-3-230 1-4 10-51 239-54 256-21 96-18 170-131 177-149 9-107-76-85-178 4-21 52-242 53-256h-235c-16 62-28 130-41 193l-41 195zm2182-388c-109-2-224 0-334 0-99 0-190-8-255 77-68 90-72 247 80 274 46 8 186-6 212 10 12 8 17 24 8 40-17 30-108 19-148 19-36 0-199-2-220 1l-30 143c53 0 399 3 443-2 68-7 119-37 147-75 29-39 56-108 48-173-8-64-53-95-118-104-44-6-192 3-215-7-13-6-22-20-16-38 5-13 19-19 35-21 26-3 293 0 333 0l30-144zm-1308-557c-15 0-17-3-22-15-3-8-7-19-10-26-10-16-31-24-47-7-9 9-18 5-33 4-72-2-37 18-88 21-42 3-52-4-53 22-2 91 135 60 183 110 15 15 26 21 38 34 31 35 39 37 69 77 22 27 84 110 55 150-11 17-38 9-26 41 12 3 46 1 61 1 34 0 24 2 42-17 16-18 35-46 43-76 7 2 56 13 58 15 6 4 28 32 30 44-12 10-30 6-19 34h125c1-10-12-26-13-44-2-25 30-68 24-142-10-122-150-170-249-203-37-13-139-44-174-51l6 28z"/>
    <path class="fil0" d="M26687 3372c14 68 28 119 13 193-19 94-51 80-67 97-7 8-13 31 0 39 0 0 147 2 153-1 14-5 110-112 116-138-9-10-16-17-25-25-29-26-159-147-190-165zm1861 1382c2 25 0 44-16 53-14 8-43 10-55-1-23-22 7-67 71-52zm77 86v-1c-23-16-19-51-19-84 0-30-1-63-15-86-29-45-120-40-155-21l12 41c23-5 33-11 61-9 21 2 38 10 38 32-66-9-139 15-134 85 6 72 109 73 141 38 12 8 12 21 33 22 23 2 28-7 38-17zm-736-86c12 74-60 63-71 52-8-8-13-35 12-47 17-8 39-8 59-5zm-99-64c7-2 16-6 27-8 26-4 70-5 71 30-68-8-142 15-133 88 6 53 65 65 106 54 21-5 23-11 36-19 13 22 35 28 55 19 8-4 8-7 14-13-4-7-8-7-12-16-17-33 5-110-22-155-12-21-36-31-67-35-39-4-55 3-88 12l13 43zm-371 174h37c8-4 22-5 32-9 28-11 48-32 50-67l-1-157-57 16c-3 34-1 77-1 112 0 30-1 62-51 57-40-4-36-37-36-75 0-35 2-76-1-110l-58 17c-1 20-1 134 1 149 8 62 73 62 85 67zm-15-1285c-46-28-104-66-169-80 4 35 20 69 14 119-4 34-12 34-26 41-27 12-8 35-5 42h134c10-2 51-78 52-122zm987 1222c-7 2-62 30-68-16-2-12-3-92 0-103h61v-44h-62l-1-62-57 20v42h-26c-1 11-2 35 1 44h25c0 37-6 118 10 145 23 42 98 33 117 23v-49zm-383-241v201c0 29-5 71 14 88 21 19 61 5 69-16-12-9-25-6-25-52 0-72 2-166 0-233l-58 12zm-252 84c-14-8-36-11-55-9-23 2-32 10-46 19v-15h-57v215l57-1c0-38-3-92 0-128 2-19 13-33 25-39 19-12 34-4 52 3l24-45zm357 39h28v171l59-1-1-215-86 1zm-1901-982c11 0 17-11 23-17 5-7 11-15 16-23 21-32 22-33 12-55s-31-54-45-73c-5-7-13-17-16-24-3 3-1 0-3 4-2 5-8 93-14 113-18 61-65 37-52 75h79zm1926 892c7 38 71 32 65-10-5-39-72-33-65 10z"/>
    <g id="_1119261312">
      <path class="fil0" d="M11012 6780c0-135-3-302 0-435 1-47 20-74 69-74s68 30 69 78v432h237v-293c0-105-23-219 70-217 49 1 67 29 67 78v433l309-1v-206h-64v-252c0-82-6-145-49-199-76-95-236-79-318-6-13 12-18 22-33 29-44-98-196-108-289-62-40 20-59 48-74 58v-55h-303v202h66v285h-66v207l309-2zm3409-507c184-46 244 257 61 300-181 43-248-253-61-300zm-407-252h57v554h-58v207l306-1v-44c9 3 39 28 75 44 149 67 309-8 390-153 126-224-11-577-301-558-109 8-144 54-168 64v-313h-302l1 200zm-552 252c88-23 156 49 170 119 17 92-41 165-109 181-180 44-249-250-61-300zm412 17h57l-2-203h-299l-2 46c-11-5-21-15-34-23-95-59-228-54-323 8-282 185-165 707 182 686 103-7 144-57 170-68v46l306-2v-205h-56l1-285zm-1735 65c-8-58 62-119 122-118 62 1 122 54 118 118h-240zm498 141c11-126-10-208-71-290-47-61-123-119-227-137-197-35-397 64-449 270-27 108-8 220 42 301 179 288 635 178 693-57-44-6-118-1-164-1-145 0-59 4-132 30-80 29-187 9-190-116h498zm2594-224c89-21 157 51 169 123 16 91-43 167-114 181-90 19-155-53-168-125-16-90 43-162 113-179zm-355 201c24 193 200 352 422 329 196-20 367-187 343-411-21-194-202-355-424-330-195 21-367 190-341 412z"/>
      <path class="fil0" d="M12763 6088h-63l-2 200 65 2v283l-66 2v207h370v-207h-66v-285h62v-202h-63l-1-223h-235z"/>
    </g>
    <path class="fil0 str1" d="M2056 8978v-118c103-1 204-1 307-1 99 0 224 30 240-72 17-110-72-120-155-147-183-59-366-78-396-224-20-99 0-194 63-242 73-55 477-33 599-32l-2 115h-307c-100 0-230-30-210 108 15 109 255 123 427 197 80 35 125 61 134 174 29 338-278 229-700 242zm3361-833l156-2-12 596-133-2zm-2611 203h87l-1-206 131 2v204l179 1-1 94-178 1c0 335-46 435 179 434l3 98c-464 22-262-295-319-531h-80v-97zm1709 629l-132-1c17-654-76-628 239-628 147 0 296-2 444 0 276 3 220 235 219 568v61l-132-1 1-408c1-189-245-116-246-116-27 55-5 427-9 525h-129l-1-530c-62-5-131-3-190-3-72 0-65-11-65 134 1 132-3 268 1 399zm-404-3l-131 3c-1-107-12-387 8-474 32-133 174-180 333-150l-1 90c-142 12-203 5-209 166-5 117-2 248 0 365zm-2756-332c-78-349 461-446 521-105 45 252-280 453-479 195-17-21-36-61-42-90zm1936-295l128 1c0 125-10 298 4 418 8 74 23 102 101 111 278 30 218-35 218-257 0-90-2-182 1-272h129c13 709 26 629-285 630-154 0-271-19-293-169-16-116-3-336-3-462zm2140 494l121-2c18 39 10 93 9 138l-132-1 2-135z"/>
    <path class="fil0 str1" d="M4515 8977c-4-131 0-267-1-399 0-145-7-134 65-134 59 0 128-2 190 3l1 530h129c4-98-18-470 9-525 1 0 247-73 246 116l-1 408 132 1v-61c1-333 57-565-219-568-148-2-297 0-444 0-315 0-222-26-239 628l132 1zm-2459 1c422-13 729 96 700-242-9-113-54-139-134-174-172-74-412-88-427-197-20-138 110-108 210-108h307l2-115c-122-1-526-23-599 32-63 48-83 143-63 242 30 146 213 165 396 224 83 27 172 37 155 147-16 102-141 72-240 72-103 0-204 0-307 1v118zm-701-336c6 29 25 69 42 90 199 258 524 57 479-195-60-341-599-244-521 105zm1936-295c0 126-13 346 3 462 22 150 139 169 293 169 311-1 298 79 285-630h-129c-3 90-1 182-1 272 0 222 60 287-218 257-78-9-93-37-101-111-14-120-4-293-4-418l-128-1zm-485 98h80c57 236-145 553 319 531l-3-98c-225 1-179-99-179-434l178-1 1-94-179-1v-204l-131-2 1 206h-87v97zm1305 529c-2-117-5-248 0-365 6-161 67-154 209-166l1-90c-159-30-301 17-333 150-20 87-9 367-8 474l131-3zm1317-237l133 2 12-596-156 2zm1 239l132 1c1-45 9-99-9-138l-121 2-2 135z"/>
    <g id="_1119383520">
      <path class="fil0" d="M692 4012h7644v423H903c-116 0-211-95-211-211v-212zm249 348v-190h152v190h-43v-159h-66v159h-43zm386 4c-28 0-49-10-64-30-15-21-22-44-22-70 0-28 8-51 24-70 17-18 38-28 65-28 25 0 46 9 63 27 16 19 24 42 24 71 0 30-8 54-25 73-17 18-39 27-65 27zm2-35c29 0 43-22 43-65 0-19-3-35-10-46s-18-17-32-17c-15 0-26 6-33 18-7 11-11 27-11 46 0 21 4 36 12 47 7 11 18 17 31 17zm208 31l61-190h51l59 190h-45l-43-157-48 157h-35zm346-19v19h-43v-190h43v83c0 12-1 25-1 39 6-10 15-22 27-37l49-60v-25h42v190h-42v-78c0-16 0-29 1-41-6 10-14 21-25 35l-51 65zm277 19v-190h65l48 157 52-157h60v190h-39v-157h-3l-51 157h-44l-51-157h-2v157h-35zm506-61l39 6c-5 17-15 31-30 42-14 11-33 17-55 17-26 0-47-9-63-27-16-17-24-41-24-71 0-29 8-53 24-72 16-18 38-28 66-28 27 0 48 9 63 28 14 19 22 42 22 71v5h-131c0 13 2 24 4 31 3 8 7 15 15 21 7 5 16 8 27 8 21 0 35-10 43-31zm-3-56c0-14-4-25-12-34-8-8-18-13-30-13s-22 4-30 12-12 20-14 35h86zm236 181h-44v-254h41v33c13-24 33-37 58-37 21 0 38 9 51 28 12 18 18 41 18 70 0 27-5 50-17 70s-30 30-54 30-42-10-53-31v91zm0-142c0 14 4 25 12 34s18 14 28 14c13 0 23-6 30-18 6-12 9-27 9-45 0-20-3-35-10-48-6-12-15-18-28-18-12 0-21 5-29 15s-12 23-12 39v27zm272 78v-190h43v73h74v-73h43v190h-43v-84h-74v84h-43zm482 0h-41c-4-12-6-24-6-38-12 28-33 42-65 42-19 0-34-6-45-17-12-11-17-25-17-42 0-43 38-65 114-65h13v-14c0-20-14-30-41-30-26 0-40 10-44 30l-36-6c2-15 10-28 24-39 14-10 35-15 62-15 15 0 27 1 36 4 9 2 17 6 23 12 7 6 11 12 14 19 2 7 3 19 3 35v86c0 12 2 25 6 38zm-47-97c-56 0-84 14-84 40 0 8 3 15 9 20 5 6 14 9 25 9 16 0 29-6 37-16s13-22 13-35v-18zm308 97v-74h-46l-35 74h-46l47-84c-23-8-35-24-35-48 0-19 6-34 17-43 11-10 26-15 44-15h96v190h-42zm0-106v-53h-45c-18 0-27 10-27 28 0 17 8 25 25 25h47zm394 106v-190h118v33h-75v157h-43zm295-19v19h-43v-190h43v83c0 12 0 25-1 39 6-10 15-22 27-37l49-60v-25h43v190h-43v-78c0-16 0-29 1-41-6 10-14 21-25 35l-51 65zm268-14l44-157h70l39 157h17v77h-27l-5-44h-123l-5 44h-28v-77h18zm34 0h76l-28-124h-16l-32 124zm313 97h-44v-254h41v33c13-24 32-37 58-37 21 0 38 9 50 28 13 18 19 41 19 70 0 27-6 50-18 70s-30 30-53 30c-25 0-42-10-53-31v91zm0-142c0 14 4 25 12 34s17 14 27 14c14 0 24-6 30-18 7-12 10-27 10-45 0-20-3-35-10-48-6-12-16-18-28-18s-21 5-29 15-12 23-12 39v27zm346 82c-28 0-50-10-64-30-15-21-23-44-23-70 0-28 9-51 25-70 16-18 38-28 65-28 25 0 46 9 62 27 17 19 25 42 25 71 0 30-9 54-26 73-17 18-38 27-64 27zm1-35c29 0 44-22 44-65 0-19-4-35-11-46s-17-17-31-17c-15 0-26 6-33 18-7 11-11 27-11 46 0 21 4 36 11 47 8 11 18 17 31 17zm279 12v19h-42v-190h42v83c0 12 0 25-1 39 7-10 16-22 28-37l48-60v-25h43v190h-43v-78c0-16 1-29 2-41-7 10-15 21-25 35l-52 65zm319-64v-30c20 0 33-2 39-7 5-5 7-11 7-18s-2-13-7-17c-5-5-12-7-21-7-20 0-32 9-35 28l-40-7c9-35 35-53 78-53 23 0 41 5 53 15s18 22 18 37c0 19-12 33-35 41 27 7 41 22 41 46 0 17-7 31-20 42s-32 17-57 17c-45 0-72-19-82-58l39-7c6 22 19 34 40 34 10 0 19-3 25-8 6-6 9-13 9-22 0-7-2-12-6-17-4-4-10-7-16-8s-16-1-30-1zm319 87c-28 0-49-10-64-30-15-21-22-44-22-70 0-28 8-51 25-70 16-18 37-28 64-28 26 0 47 9 63 27 16 19 24 42 24 71 0 30-8 54-25 73-17 18-39 27-65 27zm2-35c29 0 43-22 43-65 0-19-3-35-10-46s-18-17-32-17c-15 0-26 6-33 18-7 11-11 27-11 46 0 21 4 36 12 47 7 11 18 17 31 17zm209 31l60-190h51l59 190h-45l-43-157-48 157h-34zm409 0v-74h-46l-35 74h-46l47-84c-23-8-35-24-35-48 0-19 6-34 17-43 12-10 26-15 45-15h96v190h-43zm0-106v-53h-45c-18 0-27 10-27 28 0 17 8 25 26 25h46zm202 106v-190h43v157h69v-157h43v157h28v77h-28l-5-44h-150zm360-19v19h-43v-190h43v83c0 12 0 25-1 39 6-10 15-22 27-37l49-60v-25h42v190h-42v-78c0-16 0-29 1-41-6 10-14 21-25 35l-51 65zm384 19v-74h-46l-35 74h-46l47-84c-23-8-35-24-35-48 0-19 6-34 17-43 12-10 27-15 45-15h96v190h-43zm0-106v-53h-44c-19 0-28 10-28 28 0 17 9 25 26 25h46zm-2987-564c-130-6-212-74-219-202-10-166 71-212 226-205l-7 407zm256-410c153 3 233 47 226 207-7 135-91 189-226 205v-412zm-250 480l1 153 246-2 1-153c249 25 463-54 427-325-35-258-282-224-538-224-230 0-515-33-558 204-52 290 165 361 421 347zm1647 154l178-1 253-392 1 384 222 10v-702c-202-8-177 2-266 144l-166 241v-388l-222 1v703z"/>
      <path class="fil0" d="M6092 3661c-57-503 250-497 276-228 48 492-247 489-276 228zm-4-464c-187 53-339 257-231 501 72 162 297 268 530 189 442-150 274-853-299-690zM685 3913l223-2v-555l208 4 1 554h222l-1-703H695zm1920-371l73-172c29 57 57 115 86 172h-159zm-259 372c152 0 113 17 222-285l249-5 111 207c58 98 113 98 259 76l-374-695-194-2-273 704zm1519-199l-154-2c-41 46-6 12-33 50-78 114-253 115-260-197-7-358 165-349 247-262 8 9 11 15 18 23l182 37c-56-332-713-234-712 183 0 414 649 498 712 168zm3580 194l95 6 229-550 189 339c100 185 78 210 333 210l-381-697-206-6-259 698zm-6034 5h125l202-537 256 461c38 68 107 80 260 74l-379-675c-21-37-103-26-189-26l-275 703zm2739-600v599l222-7v-590l184-1c25 0 27-47 14-102h-630c0 70 10 101 37 101h173z"/>
    </g>
  </g>
</svg>
