<svg xmlns="http://www.w3.org/2000/svg" viewBox="0 0 42000 11000" shape-rendering="geometricPrecision" text-rendering="geometricPrecision" image-rendering="optimizeQuality" fill-rule="evenodd" clip-rule="evenodd">
  <defs>
    <style>
<![CDATA[
    .fil6 {fill:#EB632F}
    .fil7 {fill:#FEFEFE}
    .fil8 {fill:#005A9F}
    .fil2 {fill:#2A2B17;fill-rule:nonzero}
    .fil1 {fill:#2B2A29;fill-rule:nonzero}
    .fil3 {fill:#FEFEFE;fill-rule:nonzero}
    .fil0 {fill:#FFED00;fill-rule:nonzero}
    .fil4 {fill:#2B2A29;fill-rule:nonzero;fill-opacity:0.400000}
    .fil5 {fill:#2B2A29;fill-rule:nonzero;fill-opacity:0.749020}
   ]]>
    </style>
    <clipPath id="id0" clip-rule="nonzero">
      <path d="M24844-1522h1549v1143h-1549v-1143z"/>
    </clipPath>
    <clipPath id="id1" clip-rule="nonzero">
      <path d="M24907-1230h1550V28h-1550v-1258z"/>
    </clipPath>
    <clipPath id="id2" clip-rule="nonzero">
      <path d="M24804-11382h1549v1143h-1549v-1143z"/>
    </clipPath>
    <clipPath id="id3" clip-rule="nonzero">
      <path d="M24867-11090h1550v1258h-1550v-1258z"/>
    </clipPath>
    <clipPath id="id4" clip-rule="nonzero">
      <path d="M29924-11497h1549v1143h-1549v-1143z"/>
    </clipPath>
    <clipPath id="id5" clip-rule="nonzero">
      <path d="M29987-11205h1550v1257h-1550v-1257z"/>
    </clipPath>
    <clipPath id="id6" clip-rule="nonzero">
      <path d="M24904-16611h1549v1143h-1549v-1143z"/>
    </clipPath>
    <clipPath id="id7" clip-rule="nonzero">
      <path d="M24967-16319h1550v1258h-1550v-1258z"/>
    </clipPath>
    <clipPath id="id8" clip-rule="nonzero">
      <path d="M34924-15952h1549v1143h-1549v-1143z"/>
    </clipPath>
    <clipPath id="id9" clip-rule="nonzero">
      <path d="M34987-15660h1550v1258h-1550v-1258z"/>
    </clipPath>
    <clipPath id="id10" clip-rule="nonzero">
      <path d="M34864-1497h1549v1143h-1549v-1143z"/>
    </clipPath>
    <clipPath id="id11" clip-rule="nonzero">
      <path d="M34927-1205h1550V52h-1550v-1257z"/>
    </clipPath>
    <clipPath id="id12" clip-rule="nonzero">
      <path d="M24799-6597h1549v1143h-1549v-1143z"/>
    </clipPath>
    <clipPath id="id13" clip-rule="nonzero">
      <path d="M24862-6305h1550v1257h-1550v-1257z"/>
    </clipPath>
    <clipPath id="id14" clip-rule="nonzero">
      <path d="M34604-11642h1549v1143h-1549v-1143z"/>
    </clipPath>
    <clipPath id="id15" clip-rule="nonzero">
      <path d="M34667-11350h1550v1258h-1550v-1258z"/>
    </clipPath>
    <clipPath id="id16" clip-rule="nonzero">
      <path d="M29764-1622h1549v1143h-1549v-1143z"/>
    </clipPath>
    <clipPath id="id17" clip-rule="nonzero">
      <path d="M29827-1330h1550V-72h-1550v-1258z"/>
    </clipPath>
    <clipPath id="id18" clip-rule="nonzero">
      <path d="M29944-6682h1549v1143h-1549v-1143z"/>
    </clipPath>
    <clipPath id="id19" clip-rule="nonzero">
      <path d="M30007-6390h1550v1258h-1550v-1258z"/>
    </clipPath>
    <clipPath id="id20" clip-rule="nonzero">
      <path d="M34899-6682h1549v1143h-1549v-1143z"/>
    </clipPath>
    <clipPath id="id21" clip-rule="nonzero">
      <path d="M34962-6390h1550v1258h-1550v-1258z"/>
    </clipPath>
    <clipPath id="id22" clip-rule="nonzero">
      <path d="M29764-16597h1549v1143h-1549v-1143z"/>
    </clipPath>
    <clipPath id="id23" clip-rule="nonzero">
      <path d="M29827-16305h1550v1257h-1550v-1257z"/>
    </clipPath>
  </defs>
  <symbol id="Fm21-312-0" viewBox="24844 -1522 1613 1549">
    <path class="fil0" d="M25651-33v-8c-203 0-388-79-521-207-134-128-216-304-216-499s82-372 216-500c133-128 318-207 521-207 204 0 389 79 522 207 134 128 216 305 216 500s-82 371-216 499c-133 128-318 207-522 207v8z"/>
    <path class="fil1" d="M25651-25v-8c412 0 746-320 746-714 0-395-334-715-746-715s-745 320-745 715c0 394 333 714 745 714v8c-208 0-396-81-533-211-136-131-221-312-221-511 0-200 85-381 221-511 137-131 325-212 533-212s397 81 533 212c137 130 221 311 221 511 0 199-84 380-221 511-136 130-325 211-533 211z"/>
    <path class="fil2" d="M25651-33c-412 0-745-320-745-714 0-395 333-715 745-715s746 320 746 715c0 394-334 714-746 714v-8c204 0 389-79 522-207 134-128 216-304 216-499s-82-372-216-500c-133-128-318-207-522-207-203 0-388 79-521 207-134 128-216 305-216 500s82 371 216 499c133 128 318 207 521 207v8z"/>
  </symbol>
  <symbol id="Fm13-156-0" viewBox="33350 -27213 6700 438">
    <path class="fil3" d="M33350-26775h6700v-438h-6700z"/>
  </symbol>
  <symbol id="Fm17-262-0" viewBox="24804 -11382 1613 1549">
    <path class="fil0" d="M25611-9893v-8c-203 0-388-79-521-207-134-128-216-304-216-499s82-372 216-500c133-128 318-207 521-207 204 0 389 79 522 207 134 128 216 305 216 500s-82 371-216 499c-133 128-318 207-522 207v8z"/>
    <path class="fil1" d="M25611-9885v-8c412 0 746-320 746-714 0-395-334-715-746-715s-745 320-745 715c0 394 333 714 745 714v8c-208 0-396-81-533-211-136-131-221-312-221-511 0-200 85-381 221-511 137-131 325-212 533-212s397 81 533 212c137 130 221 311 221 511 0 199-84 380-221 511-136 130-325 211-533 211z"/>
    <path class="fil2" d="M25611-9893c-412 0-745-320-745-714 0-395 333-715 745-715s746 320 746 715c0 394-334 714-746 714v-8c204 0 389-79 522-207 134-128 216-304 216-499s-82-372-216-500c-133-128-318-207-522-207-203 0-388 79-521 207-134 128-216 305-216 500s82 371 216 499c133 128 318 207 521 207v8z"/>
  </symbol>
  <symbol id="Fm15-238-0" viewBox="29924 -11497 1613 1549">
    <path class="fil0" d="M30731-10008v-8c-203 0-388-79-521-207-134-128-216-305-216-500s82-371 216-499c133-128 318-207 521-207 204 0 389 79 522 207 134 128 216 304 216 499s-82 372-216 500c-133 128-318 207-522 207v8z"/>
    <path class="fil1" d="M30731-10000v-8c412 0 746-320 746-715 0-394-334-714-746-714s-745 320-745 714c0 395 333 715 745 715v8c-208 0-396-81-533-212-136-130-221-311-221-511 0-199 85-380 221-511 137-130 325-211 533-211s397 81 533 211c137 131 221 312 221 511 0 200-84 381-221 511-136 131-325 212-533 212z"/>
    <path class="fil2" d="M30731-10008c-412 0-745-320-745-715 0-394 333-714 745-714s746 320 746 714c0 395-334 715-746 715v-8c204 0 389-79 522-207 134-128 216-305 216-500s-82-371-216-499c-133-128-318-207-522-207-203 0-388 79-521 207-134 128-216 304-216 499s82 372 216 500c133 128 318 207 521 207v8z"/>
  </symbol>
  <symbol id="Fm12-202-0" viewBox="24904 -16611 1613 1549">
    <path class="fil0" d="M25711-15122v-8c-203 0-388-79-521-207-134-128-216-304-216-499s82-372 216-500c133-127 318-207 521-207 204 0 389 80 522 207 134 128 216 305 216 500s-82 371-216 499c-133 128-318 207-522 207v8z"/>
    <path class="fil1" d="M25711-15114v-8c412 0 746-320 746-714 0-395-334-715-746-715s-745 320-745 715c0 394 333 714 745 714v8c-208 0-396-81-533-211-136-131-221-312-221-511 0-200 85-381 221-511 137-131 325-212 533-212s397 81 533 212c137 130 221 311 221 511 0 199-84 380-221 511-136 130-325 211-533 211z"/>
    <path class="fil2" d="M25711-15122c-412 0-745-320-745-714 0-395 333-715 745-715s746 320 746 715c0 394-334 714-746 714v-8c204 0 389-79 522-207 134-128 216-304 216-499s-82-372-216-500c-133-127-318-207-522-207-203 0-388 80-521 207-134 128-216 305-216 500s82 371 216 499c133 128 318 207 521 207v8z"/>
  </symbol>
  <symbol id="Fm1-148-0" viewBox="25978 -23163 17463 826">
    <path class="fil4" d="M25978-23163h17463v825H25978z"/>
  </symbol>
  <symbol id="Fm5-138-0" viewBox="25943 -9980 17463 1410">
    <path class="fil5" d="M25943-9980h17463v1410H25943z"/>
  </symbol>
  <symbol id="Fm3-134-0" viewBox="25943 -5534 17463 838">
    <path class="fil5" d="M25943-5534h17463v839H25943z"/>
  </symbol>
  <symbol id="Fm14-129-0" viewBox="33350 -28075 6700 370">
    <path class="fil3" d="M33350-27705h6700v-370h-6700z"/>
  </symbol>
  <symbol id="Fm10-150-0" viewBox="26300 -26780 6700 760">
    <path class="fil3" d="M26300-26020h6700v-760h-6700z"/>
  </symbol>
  <symbol id="Fm9-179-0" viewBox="26300 -27260 6700 400">
    <path class="fil3" d="M26300-26860h6700v-400h-6700z"/>
  </symbol>
  <symbol id="Fm9-146-0" viewBox="26300 -26780 6700 760">
    <path class="fil3" d="M26300-26020h6700v-760h-6700z"/>
  </symbol>
  <symbol id="Fm14-226-0" viewBox="34924 -15952 1613 1549">
    <path class="fil0" d="M35731-14463v-8c-203 0-388-79-521-207-134-128-216-304-216-499s82-372 216-500c133-128 318-207 521-207 204 0 389 79 522 207 134 128 216 305 216 500s-82 371-216 499c-133 128-318 207-522 207v8z"/>
    <path class="fil1" d="M35731-14455v-8c412 0 746-320 746-714 0-395-334-715-746-715s-745 320-745 715c0 394 333 714 745 714v8c-208 0-396-81-533-211-136-131-221-312-221-511 0-200 85-381 221-511 137-131 325-212 533-212s397 81 533 212c137 130 221 311 221 511 0 199-84 380-221 511-136 130-325 211-533 211z"/>
    <path class="fil2" d="M35731-14463c-412 0-745-320-745-714 0-395 333-715 745-715s746 320 746 715c0 394-334 714-746 714v-8c204 0 389-79 522-207 134-128 216-304 216-499s-82-372-216-500c-133-128-318-207-522-207-203 0-388 79-521 207-134 128-216 305-216 500s82 371 216 499c133 128 318 207 521 207v8z"/>
  </symbol>
  <symbol id="Fm5-171-0" viewBox="25953 -5763 17463 826">
    <path class="fil5" d="M25953-5763h17463v825H25953z"/>
  </symbol>
  <symbol id="Fm16-163-0" viewBox="25953 -2403 10617 1041">
    <path class="fil5" d="M25953-2403h10617v1041H25953z"/>
  </symbol>
  <symbol id="Fm23-336-0" viewBox="34864 -1497 1613 1549">
    <path class="fil0" d="M35671-8v-8c-203 0-388-79-521-207-134-128-216-305-216-500s82-371 216-499c133-128 318-207 521-207 204 0 389 79 522 207 134 128 216 304 216 499s-82 372-216 500c-133 128-318 207-522 207v8z"/>
    <path class="fil1" d="M35671 0v-8c412 0 746-320 746-715 0-394-334-714-746-714s-745 320-745 714c0 395 333 715 745 715v8c-208 0-396-81-533-212-136-130-221-311-221-511 0-199 85-380 221-511 137-130 325-211 533-211s397 81 533 211c137 131 221 312 221 511 0 200-84 381-221 511-136 131-325 212-533 212z"/>
    <path class="fil2" d="M35671-8c-412 0-745-320-745-715 0-394 333-714 745-714s746 320 746 714c0 395-334 715-746 715v-8c204 0 389-79 522-207 134-128 216-305 216-500s-82-371-216-499c-133-128-318-207-522-207-203 0-388 79-521 207-134 128-216 304-216 499s82 372 216 500c133 128 318 207 521 207v8z"/>
  </symbol>
  <symbol id="Fm20-300-0" viewBox="24799 -6597 1613 1549">
    <path class="fil0" d="M25607-5108v-8c-204 0-389-79-522-207-134-128-216-305-216-500s82-371 216-499c133-128 318-207 522-207 203 0 388 79 521 207 134 128 216 304 216 499s-82 372-216 500c-133 128-318 207-521 207v8z"/>
    <path class="fil1" d="M25607-5100v-8c411 0 745-320 745-715 0-394-334-714-745-714-412 0-746 320-746 714 0 395 334 715 746 715v8c-208 0-397-81-533-212-137-130-221-311-221-511 0-199 84-380 221-511 136-130 325-211 533-211s396 81 533 211c136 131 220 312 220 511 0 200-84 381-220 511-137 131-325 212-533 212z"/>
    <path class="fil2" d="M25607-5108c-412 0-746-320-746-715 0-394 334-714 746-714 411 0 745 320 745 714 0 395-334 715-745 715v-8c203 0 388-79 521-207 134-128 216-305 216-500s-82-371-216-499c-133-128-318-207-521-207-204 0-389 79-522 207-134 128-216 304-216 499s82 372 216 500c133 128 318 207 522 207v8z"/>
  </symbol>
  <symbol id="Fm8-144-0" viewBox="26300 -27260 6700 400">
    <path class="fil3" d="M26300-26860h6700v-400h-6700z"/>
  </symbol>
  <symbol id="Fm12-125-0" viewBox="33350 -27213 6700 438">
    <path class="fil3" d="M33350-26775h6700v-438h-6700z"/>
  </symbol>
  <symbol id="Fm1-119-0" viewBox="25977 -21884 17463 838">
    <path class="fil4" d="M25977-21884h17462v838H25977z"/>
  </symbol>
  <symbol id="Fm16-250-0" viewBox="34604 -11642 1613 1549">
    <path class="fil0" d="M35411-10153v-8c-203 0-388-79-521-207-134-128-216-304-216-499s82-372 216-500c133-128 318-207 521-207 204 0 389 79 522 207 134 128 216 305 216 500s-82 371-216 499c-133 128-318 207-522 207v8z"/>
    <path class="fil1" d="M35411-10145v-8c412 0 746-320 746-714 0-395-334-715-746-715s-745 320-745 715c0 394 333 714 745 714v8c-208 0-396-81-533-211-136-131-221-312-221-511 0-200 85-381 221-511 137-131 325-212 533-212s397 81 533 212c137 130 221 311 221 511 0 199-84 380-221 511-136 130-325 211-533 211z"/>
    <path class="fil2" d="M35411-10153c-412 0-745-320-745-714 0-395 333-715 745-715s746 320 746 715c0 394-334 714-746 714v-8c204 0 389-79 522-207 134-128 216-304 216-499s-82-372-216-500c-133-128-318-207-522-207-203 0-388 79-521 207-134 128-216 305-216 500s82 371 216 499c133 128 318 207 521 207v8z"/>
  </symbol>
  <symbol id="Fm8-177-0" viewBox="26300 -27700 6700 340">
    <path class="fil3" d="M26300-27360h6700v-340h-6700z"/>
  </symbol>
  <symbol id="Fm14-158-0" viewBox="33350 -26710 6700 710">
    <path class="fil3" d="M33350-26000h6700v-710h-6700z"/>
  </symbol>
  <symbol id="Fm13-127-0" viewBox="33350 -26710 6700 710">
    <path class="fil3" d="M33350-26000h6700v-710h-6700z"/>
  </symbol>
  <symbol id="Fm4-136-0" viewBox="26032 -1575 17463 838">
    <path class="fil5" d="M26032-1575h17462v838H26032z"/>
  </symbol>
  <symbol id="Fm4-169-0" viewBox="25928 -9243 17463 826">
    <path class="fil5" d="M25928-9243h17463v825H25928z"/>
  </symbol>
  <symbol id="Fm12-154-0" viewBox="33350 -27650 6700 375">
    <path class="fil3" d="M33350-27275h6700v-375h-6700z"/>
  </symbol>
  <symbol id="Fm0-116-0" viewBox="25750 -29775 17625 1125">
    <path class="fil3" d="M25750-28650h17625v-1125H25750z"/>
  </symbol>
  <symbol id="Fm0-145-0" viewBox="25750 -29775 17625 1125">
    <path class="fil3" d="M25750-28650h17625v-1125H25750z"/>
  </symbol>
  <symbol id="Fm11-123-0" viewBox="33350 -27650 6700 375">
    <path class="fil3" d="M33350-27275h6700v-375h-6700z"/>
  </symbol>
  <symbol id="Fm22-324-0" viewBox="29764 -1622 1613 1549">
    <path class="fil0" d="M30571-133v-8c-203 0-388-79-521-207-134-128-216-304-216-499s82-372 216-500c133-128 318-207 521-207 204 0 389 79 522 207 134 128 216 305 216 500s-82 371-216 499c-133 128-318 207-522 207v8z"/>
    <path class="fil1" d="M30571-125v-8c412 0 746-320 746-714 0-395-334-715-746-715s-745 320-745 715c0 394 333 714 745 714v8c-208 0-396-81-533-211-136-131-221-312-221-511 0-200 85-381 221-511 137-131 325-212 533-212s397 81 533 212c137 130 221 311 221 511 0 199-84 380-221 511-136 130-325 211-533 211z"/>
    <path class="fil2" d="M30571-133c-412 0-745-320-745-714 0-395 333-715 745-715s746 320 746 715c0 394-334 714-746 714v-8c204 0 389-79 522-207 134-128 216-304 216-499s-82-372-216-500c-133-128-318-207-522-207-203 0-388 79-521 207-134 128-216 305-216 500s82 371 216 499c133 128 318 207 521 207v8z"/>
  </symbol>
  <symbol id="Fm18-274-0" viewBox="29944 -6682 1613 1549">
    <path class="fil0" d="M30751-5193v-8c-203 0-388-79-521-207-134-128-216-304-216-499s82-372 216-500c133-128 318-207 521-207 204 0 389 79 522 207 134 128 216 305 216 500s-82 371-216 499c-133 128-318 207-522 207v8z"/>
    <path class="fil1" d="M30751-5185v-8c412 0 746-320 746-714 0-395-334-715-746-715s-745 320-745 715c0 394 333 714 745 714v8c-208 0-396-81-533-211-136-131-221-312-221-511 0-200 85-381 221-511 137-131 325-212 533-212s397 81 533 212c137 130 221 311 221 511 0 199-84 380-221 511-136 130-325 211-533 211z"/>
    <path class="fil2" d="M30751-5193c-412 0-745-320-745-714 0-395 333-715 745-715s746 320 746 715c0 394-334 714-746 714v-8c204 0 389-79 522-207 134-128 216-304 216-499s-82-372-216-500c-133-128-318-207-522-207-203 0-388 79-521 207-134 128-216 305-216 500s82 371 216 499c133 128 318 207 521 207v8z"/>
  </symbol>
  <symbol id="Fm7-175-0" viewBox="26300 -28560 6700 760">
    <path class="fil3" d="M26300-27800h6700v-760h-6700z"/>
  </symbol>
  <symbol id="Fm6-140-0" viewBox="26300 -28560 6700 760">
    <path class="fil3" d="M26300-27800h6700v-760h-6700z"/>
  </symbol>
  <symbol id="Fm2-165-0" viewBox="25953 -19718 17463 826">
    <path class="fil5" d="M25953-19718h17463v825H25953z"/>
  </symbol>
  <symbol id="Fm15-160-0" viewBox="33350 -28075 6700 370">
    <path class="fil3" d="M33350-27705h6700v-370h-6700z"/>
  </symbol>
  <symbol id="Fm7-142-0" viewBox="26300 -27700 6700 340">
    <path class="fil3" d="M26300-27360h6700v-340h-6700z"/>
  </symbol>
  <symbol id="Fm10-121-0" viewBox="33350 -28575 6700 438">
    <path class="fil3" d="M33350-28138h6700v-437h-6700z"/>
  </symbol>
  <symbol id="Fm19-286-0" viewBox="34899 -6682 1613 1549">
    <path class="fil0" d="M35707-5193v-8c-204 0-389-79-522-207-134-128-216-304-216-499s82-372 216-500c133-128 318-207 522-207 203 0 388 79 521 207 134 128 216 305 216 500s-82 371-216 499c-133 128-318 207-521 207v8z"/>
    <path class="fil1" d="M35707-5185v-8c411 0 745-320 745-714 0-395-334-715-745-715-412 0-746 320-746 715 0 394 334 714 746 714v8c-208 0-397-81-533-211-137-131-221-312-221-511 0-200 84-381 221-511 136-131 325-212 533-212s396 81 533 212c136 130 220 311 220 511 0 199-84 380-220 511-137 130-325 211-533 211z"/>
    <path class="fil2" d="M35707-5193c-412 0-746-320-746-714 0-395 334-715 746-715 411 0 745 320 745 715 0 394-334 714-745 714v-8c203 0 388-79 521-207 134-128 216-304 216-499s-82-372-216-500c-133-128-318-207-521-207-204 0-389 79-522 207-134 128-216 305-216 500s82 371 216 499c133 128 318 207 522 207v8z"/>
  </symbol>
  <symbol id="Fm13-214-0" viewBox="29764 -16597 1613 1549">
    <path class="fil0" d="M30571-15108v-8c-203 0-388-79-521-207-134-128-216-305-216-500s82-371 216-499c133-128 318-207 521-207 204 0 389 79 522 207 134 128 216 304 216 499s-82 372-216 500c-133 128-318 207-522 207v8z"/>
    <path class="fil1" d="M30571-15100v-8c412 0 746-320 746-715 0-394-334-714-746-714s-745 320-745 714c0 395 333 715 745 715v8c-208 0-396-81-533-212-136-130-221-311-221-511 0-199 85-380 221-511 137-130 325-211 533-211s397 81 533 211c137 131 221 312 221 511 0 200-84 381-221 511-136 131-325 212-533 212z"/>
    <path class="fil2" d="M30571-15108c-412 0-745-320-745-715 0-394 333-714 745-714s746 320 746 714c0 395-334 715-746 715v-8c204 0 389-79 522-207 134-128 216-305 216-500s-82-371-216-499c-133-128-318-207-522-207-203 0-388 79-521 207-134 128-216 304-216 499s82 372 216 500c133 128 318 207 521 207v8z"/>
  </symbol>
  <symbol id="Fm6-173-0" viewBox="36128 -2403 7341 1041">
    <path class="fil5" d="M36128-2403h7341v1041h-7341z"/>
  </symbol>
  <symbol id="Fm3-167-0" viewBox="25928 -13298 17463 1397">
    <path class="fil5" d="M25928-13298h17463v1397H25928z"/>
  </symbol>
  <symbol id="Fm11-152-0" viewBox="33350 -28575 6700 438">
    <path class="fil3" d="M33350-28138h6700v-437h-6700z"/>
  </symbol>
  <symbol id="Fm2-132-0" viewBox="25953 -17629 17463 838">
    <path class="fil5" d="M25953-17629h17463v838H25953z"/>
  </symbol>
  <g id="Слой_x0020_1">
    <g id="_1116150608">
      <path class="fil6" d="M3991 0h34018c1972 0 3586 1401 3586 3113v5096c0 1712-1614 2791-3586 2791H3991c-1972 0-3586-1079-3586-2791V3113C405 1401 2019 0 3991 0z"/>
      <path class="fil7" d="M10403 7067h28016v194H10403zM5310 1611c2074 0 3765 1740 3765 3872 0 2130-1691 3870-3765 3870-2071 0-3762-1740-3762-3870 0-2132 1691-3872 3762-3872zm1142 1250c949 428 1614 1404 1614 2534 0 1522-1208 2766-2691 2766-1480 0-2688-1244-2688-2766 0-1156 697-2151 1680-2563v2894h2085V2861z"/>
      <path class="fil8" d="M14031 2930l-325 252-122 94-91-123c-24-31-48-61-72-88-24-28-49-55-75-82-130-134-279-241-444-321-114-56-235-97-363-125-127-28-260-42-401-42-153 0-299 18-438 54-138 36-272 91-401 164l-1 1c-35 20-70 42-105 64-31 21-64 44-97 70-161 125-291 275-392 450l1 1h-1v1c-20 34-38 69-55 105-17 35-32 71-47 108-72 189-109 394-109 617 0 234 39 448 118 641 78 192 196 366 354 521l1 2h1c42 42 87 82 136 120 48 38 97 72 146 103 260 160 565 241 915 241h1c266 0 509-52 730-157 33-15 68-33 106-55 181-103 346-243 497-420l93-110 114 88 325 249 127 97-100 124h-1c-33 42-64 80-94 113-32 36-66 72-102 108-181 178-390 323-627 434h1c-164 77-338 135-523 174-183 39-374 58-573 58-380 0-722-65-1027-195-306-131-572-326-795-587l-1-1v-1c-53-61-101-124-146-188-44-64-85-131-124-201-194-352-291-750-291-1195 0-325 56-626 170-901 114-276 285-526 512-749 226-223 481-390 766-502 283-111 594-167 931-167 203 0 397 21 582 62 184 41 360 103 528 186 51 25 96 49 136 72 45 27 88 54 129 81v1c216 146 401 326 554 540l87 122-118 92zm174-492v-559h2567v714h-920v3763h-725V2592h-922v-154zm3003-559h827c241 0 440 6 598 16 34 2 59 4 77 6h1c128 10 232 26 309 45h1c37 10 73 20 108 32 36 12 71 26 104 40 174 77 323 191 446 340l1 1c23 29 46 60 68 93 19 30 38 63 57 99h1c88 172 133 370 133 593 0 154-21 297-63 428-43 133-106 253-192 358v-1c-84 105-184 191-299 261h-1c-114 69-242 121-384 155h-1c-103 26-245 44-428 56-174 11-393 17-655 17h-142v1938h-718V1879h152zm565 714v1110l547 7v-1c135 0 251-6 348-18 90-11 162-28 216-49l2-1c12-4 25-10 40-18h1c13-7 26-14 38-21 62-37 114-88 155-152v-1l1-1c8-12 15-25 23-38 6-11 12-24 19-40 30-69 45-145 45-226 0-55-7-108-22-156-15-50-36-98-66-142l-1-2c-9-14-18-27-25-37-8-10-17-21-27-32-48-53-105-93-170-118l-2-1h-1c-15-6-30-11-42-15-15-4-33-9-54-13-110-24-259-36-448-36v1h-577zm4803-819h1v1c331 0 636 56 915 169 51 20 96 40 136 59 226 110 434 259 623 447v1c225 225 393 477 506 756 114 279 170 582 170 910 0 324-56 626-169 904s-281 530-506 757h1-1c-62 63-127 122-193 177-68 55-137 106-206 151-365 237-779 355-1244 355v-1c-325 0-625-56-901-169-277-114-528-284-753-510h-1v-1c-64-64-122-129-174-194-53-65-103-134-149-207-235-366-353-781-353-1243v-1h1c0-214 26-419 77-617 9-34 18-66 27-97 50-164 118-322 203-475 102-182 224-346 364-489 140-144 299-268 476-371h1c177-104 362-182 553-234 193-52 391-78 596-78zm20 718c-140 0-276 17-405 54-131 36-260 91-386 165-125 74-236 160-332 258-98 99-181 211-251 334v1h-1c-19 34-37 69-54 105-17 37-33 74-47 110-72 189-107 395-107 617h-1c0 227 38 436 116 626 77 190 193 363 348 519h2l-1 1c43 43 88 84 135 121 46 39 94 73 140 103 247 160 529 240 844 240 148 0 290-17 424-53s264-89 389-161v-1c35-20 69-41 101-63 33-22 65-45 95-69 155-123 283-274 383-452v-2 1c20-34 37-70 54-106 19-39 34-75 47-108 71-190 107-395 107-615 0-154-17-299-52-434-34-137-86-265-155-387h-1c-69-121-152-231-249-328-98-97-210-182-338-256l-1-1c-37-21-73-41-107-58-38-18-75-35-109-49-188-75-384-113-588-113v1zm6248 3864h-582V3423l-2450 2879-45 54h-315V1879h718v2986l2465-2932 46-54h315v4477h-152zM26230 881h452l45 71c24 37 52 69 83 96s68 50 108 69l2 1c7 3 19 8 35 14s29 11 39 13c71 22 152 32 243 32h1c63 0 122-5 175-14 11-2 19-4 24-5 38-8 71-19 98-32 32-15 65-37 97-66 35-31 71-71 106-117l46-62h628l-47 192c-25 106-70 202-135 290-62 85-143 161-243 228v1h-1c-26 17-56 35-88 52-33 17-64 32-93 44-163 67-353 100-571 100-149 0-286-15-411-46-129-33-243-81-344-146s-185-141-251-227c-68-88-116-185-145-292l-52-196h199zm3464 5321V1879h2373v720h-1661v1022h43v1c266 0 493 12 683 35 30 4 61 8 92 13h1c156 24 289 57 397 100 131 51 248 117 351 199 104 82 194 180 270 292 75 111 132 229 170 354s58 256 58 391c0 179-34 348-101 508-67 157-166 303-298 437h-1c-133 136-293 238-478 305-182 67-386 100-613 100h-1286v-154zm712-1852v1289h358c142 0 266-7 369-21 14-2 30-4 48-7 74-12 136-29 184-49 56-24 107-54 152-91 44-36 82-79 116-128 32-48 56-100 73-154 16-55 24-113 24-175v-1h1c0-77-12-149-35-214l-12-30c-23-51-53-99-91-142-48-55-102-100-162-137-60-35-126-62-200-80v-1c-78-19-180-33-304-43-125-11-273-16-443-16h-78zm4557-2382l1924 4169 100 219h-777l-41-88-607-1284h-1585l-604 1284-42 88h-796l103-220 1949-4169 41-88h293l42 89zm-189 1310l-468 995h930l-462-995zm2052-840v-559h2568v714h-920v3763h-725V2593h-923v-155z"/>
      <path class="fil7" d="M11004 8193v1268h222V8193h460v-176h-1154v176h472zm1641 535c0 380 193 762 625 762 438 0 671-356 671-760 0-381-211-750-634-750-435 0-662 347-662 748zm978 369c-69 131-185 207-333 207-131 0-253-71-316-181-62-114-82-265-82-395 0-117 17-256 71-362 62-125 188-204 327-204 125 0 244 65 313 170 74 117 90 259 90 396 0 124-11 255-70 369zm1709-202v-366c39-180 184-353 380-353 299 0 373 324 373 560 0 128-12 278-77 389-60 103-173 177-296 177-204 0-380-208-380-407zm0 1038v-700c99 165 233 257 432 257 196 0 358-112 454-271 89-145 117-327 117-491 0-347-168-748-571-748-216 0-373 125-447 315h-5v-278h-202v1916h222zm2118-1916v1444h222V8193h659v-176h-881zm1868 711c0 380 193 762 625 762 438 0 671-356 671-760 0-381-210-750-634-750-435 0-662 347-662 748zm978 369c-68 131-185 207-333 207-130 0-253-71-315-181-63-114-83-265-83-395 0-117 17-256 71-362 63-125 188-204 327-204 125 0 245 65 313 170 74 117 91 259 91 396 0 124-11 255-71 369zm1462 364h614c196 0 301-32 420-108 111-71 179-174 179-307 0-194-113-333-312-355v-6c150-29 250-142 250-296 0-255-193-372-523-372h-628v1444zm221-668h333c148 0 233 20 301 57 57 31 120 93 120 193 0 119-151 242-353 242h-401v-492zm333-171h-333v-429h393c193 0 298 46 298 205 0 82-54 150-117 185-70 42-159 39-241 39zm2024 120h219c148 0 233 23 302 59 56 32 119 74 119 213 0 171-133 271-352 271h-288v-543zm626-111c-80-37-248-65-407-65h-219v-549h-221v1444h500c196 0 301-32 421-108 111-71 179-148 179-336 0-247-160-343-253-386zm688-614h-222v1444h222V8017zm1442 1444l699-1103v1103h222V8017h-222l-699 1103V8017h-222v1444h222zm787-1950h-213c-49 137-140 156-225 156-88 0-193-17-230-156h-213c68 256 241 310 443 310s387-71 438-310zm4361 506l-463 1268h-122v460h222v-284h921v284h221v-460h-122l-423-1268h-234zm-267 1268l364-998 316 998h-680zm2030-557c0 380 194 762 626 762 438 0 671-356 671-760 0-381-211-750-634-750-435 0-663 347-663 748zm978 369c-68 131-184 207-332 207-131 0-253-71-316-181-62-114-82-265-82-395 0-117 17-256 71-362 62-125 187-204 327-204 125 0 244 65 312 170 74 117 91 259 91 396 0 124-11 255-71 369zm1653 364V8310h5l501 1026h73l492-1026h6v1151h222V8017h-276l-452 943-464-943h-298v1444h191zM10403 7067h28016v194H10403z"/>
      <path class="fil7" d="M11004 8193v1268h222V8193h460v-176h-1154v176h472zm1641 535c0 380 193 762 625 762 438 0 671-356 671-760 0-381-211-750-634-750-435 0-662 347-662 748zm978 369c-69 131-185 207-333 207-131 0-253-71-316-181-62-114-82-265-82-395 0-117 17-256 71-362 62-125 188-204 327-204 125 0 244 65 313 170 74 117 90 259 90 396 0 124-11 255-70 369zm1709-202v-366c39-180 184-353 380-353 299 0 373 324 373 560 0 128-12 278-77 389-60 103-173 177-296 177-204 0-380-208-380-407zm0 1038v-700c99 165 233 257 432 257 196 0 358-112 454-271 89-145 117-327 117-491 0-347-168-748-571-748-216 0-373 125-447 315h-5v-278h-202v1916h222zm2118-1916v1444h222V8193h659v-176h-881zm1868 711c0 380 193 762 625 762 438 0 671-356 671-760 0-381-210-750-634-750-435 0-662 347-662 748zm978 369c-68 131-185 207-333 207-130 0-253-71-315-181-63-114-83-265-83-395 0-117 17-256 71-362 63-125 188-204 327-204 125 0 245 65 313 170 74 117 91 259 91 396 0 124-11 255-71 369zm1462 364h614c196 0 301-32 420-108 111-71 179-174 179-307 0-194-113-333-312-355v-6c150-29 250-142 250-296 0-255-193-372-523-372h-628v1444zm221-668h333c148 0 233 20 301 57 57 31 120 93 120 193 0 119-151 242-353 242h-401v-492zm333-171h-333v-429h393c193 0 298 46 298 205 0 82-54 150-117 185-70 42-159 39-241 39zm2024 120h219c148 0 233 23 302 59 56 32 119 74 119 213 0 171-133 271-352 271h-288v-543zm626-111c-80-37-248-65-407-65h-219v-549h-221v1444h500c196 0 301-32 421-108 111-71 179-148 179-336 0-247-160-343-253-386zm688-614h-222v1444h222V8017zm1442 1444l699-1103v1103h222V8017h-222l-699 1103V8017h-222v1444h222zm787-1950h-213c-49 137-140 156-225 156-88 0-193-17-230-156h-213c68 256 241 310 443 310s387-71 438-310zm4361 506l-463 1268h-122v460h222v-284h921v284h221v-460h-122l-423-1268h-234zm-267 1268l364-998 316 998h-680zm2030-557c0 380 194 762 626 762 438 0 671-356 671-760 0-381-211-750-634-750-435 0-663 347-663 748zm978 369c-68 131-184 207-332 207-131 0-253-71-316-181-62-114-82-265-82-395 0-117 17-256 71-362 62-125 187-204 327-204 125 0 244 65 312 170 74 117 91 259 91 396 0 124-11 255-71 369zm1653 364V8310h5l501 1026h73l492-1026h6v1151h222V8017h-276l-452 943-464-943h-298v1444h191z"/>
    </g>
  </g>
</svg>
